<svg viewBox="0 0 900 350" xmlns="http://www.w3.org/2000/svg"><path d="m817.67 89-54 1.33 35.66 14.67 26.67-2.33 30.33 5 34.34-17.67-40 7z" fill="#dcdcdb"/><path d="m112.33 58.84-39.66 6.33-51.92-4.58 43.58 16.58 43-1 38.34-14z" fill="#dcdcdb"/><path d="m599.67 5.91-71.34 10.26 72 9.48 49.67 16.1 66.33-27.95-62 9.48z" fill="#dcdcdb"/><path d="m528.33 16.17 69.17-16.09 60.75 11.17 58.08 2.55-62 13.04-59-14.22z" fill="#ebebea"/><path d="m20.75 60.59 52.58.25 29.34-8 43 9.33-45.34 2.33-34 5.67z" fill="#ebebea"/><path d="m763.67 90.33 52.33-8.33 41.33 7.33 33.34.67-35 10.67z" fill="#ebebea"/><g fill="#2b2b2b"><path d="m815.2 290.43 43.26-5.3 41.21 6.66-40.35 7.36z" opacity=".1"/><path d="m10.56 274.91 43.25-5.3 41.21 6.67-40.35 7.35z" opacity=".1"/><path d="m90.49 317.11 62.7-8.26 59.73 10.39-58.49 11.45z" opacity=".1"/><path d="m195.64 308.13 62.7-8.26 59.73 10.39-58.49 11.46z" opacity=".1"/><path d="m581.07 311.21 76.28-8.26 72.65 10.39-71.15 11.45z" opacity=".1"/><path d="m338.16 301.03 106.01-19.84 125.16 21.89-40.7 28.04h-117.29z" opacity=".1"/></g><path d="m.08 221.33 10.41-33.15 15.15-3.03-6.67 38.9z" fill="#b9dddf"/><path d="m6.01 223.19 5.09-22.29 8.96-1.57-4.96 25.08z" fill="#80b6bc"/><path d="m23.09 183.82-9.45 40.71 19.63.73 6.06-45.2z" fill="#b9dddf"/><path d="m18.49 203.69-1.49 6.31 21.32-22.66.73-5.33zm-3.39 14.78-1.34 5.94 23.15-25.21.72-5.45-22.41 24.72z" fill="#fff"/><path d="m50.96 178.36-16.16 7.38-7.22 39.03 8.96 2.67 14.79-1.58z" fill="#80b6bc"/><path d="m50.96 178.36-11.75.98-4.85 37.56-.24 9.81 2.42.73 14.79-1.58z" fill="#b9dddf"/><path d="m35.21 210.48-.73 5.57 16.6-17.57v-4.61l-15.87 16.73zm-1 12.35-.12 3.88.36.12 16.6-18.05v-4.49l-16.81 18.71z" fill="#fff"/><path d="m49.51 174.25-4.85 53.67h13.94l6.05-57.43z" fill="#80b6bc"/><path d="m58.11 172.06-3.88.97-1.33 14.18z" fill="#b9dddf"/><path d="m49.87 190.48-3.03 38.29 13.57.85 8.24-2.06-.36-38.17z" fill="#b9dddf"/><path d="m60.41 178.73-5.33 50.89 10.18.48 15.63-1.09 4.36-53.31z" fill="#80b6bc"/><path d="m74.47 167.7-21.08 61 23.26 2.74 27.99-.85 3.39-66.77z" fill="#80b6bc"/><path d="m74.47 167.7-12.09.38 3.48 27.37z" fill="#b9dddf"/><path d="m78.95 162.97-11.63 67.98 23.75.49-6.06-69.19z" fill="#80b6bc"/><path d="m75.8 231.07 9.07 1.22c1.94-10.66 6.32-37.81 10.93-60l1-11.5-11.8 1.46z" fill="#b9dddf"/><path d="m92.89 158.13-12.72 74.64 14.29-.25 18.42-3.51 2.42-72.33z" fill="#80b6bc"/><path d="m73.78 234.09 14.26-1.44 9.93-28.24-3.51 28.11 5.7-.12.24-.12 7.88-75.12-7.88.48-6.06 32.72z" fill="#b9dddf"/><path d="m105.49 184.3.6-5.33-12.35 13.69-2.43 7.27 14.18-15.51zm1.21-11.3.48-5.09-10.66 11.3-1.09 5.79 11.27-11.88z" fill="#fff"/><path d="m113.97 144.68-13.81 87.72 30.65-2.66 8.97-.73 7.51-87.73z" fill="#80b6bc"/><path d="m128.39 143.23-9.94.96-6.9 63.86 10.66-25.93z" fill="#b9dddf"/><path d="m129.12 153.04 23.87-1.33-4.97 78.03-26.78 1.33z" fill="#80b6bc"/><path d="m132.63 152.8 7.39-.37-5.7 36.72-6 20.35 4.36-56.58zm-2.54 77.79-4.85.24 5.09-17.09z" fill="#b9dddf"/><path d="m147.29 133.65-7.15 32.72-3.51 64.34 31.02 6.66 14.66-108.69z" fill="#80b6bc"/><path d="m147.29 133.65-7.15 32.72-3.51 64.34 8.36 1.81 12.85-100.32-10.55 1.58zm1.82 99.73 3 .6 4.48-52.1-7.59 51.38z" fill="#b9dddf"/><path d="m141.11 162.13-1 4.24-.12 1.45 15.27-16.23.72-5.22-15 15.76zm-1.33 11.75-.24 4.85 14.46-15.73.72-5.58-14.9 16.36z" fill="#fff"/><path d="m160.13 236.04 5.34-75.73 19.49-32.32 15.39-2.73-4.59 113.81-18.9 2.66z" fill="#80b6bc"/><path d="m164 180.3.61-8.12 19.26-25.81-1.33 9.33z" fill="#fff"/><path d="m197.78 238.7.89-120.44 37.8-7.63-4.6 130.5-22.9-2.06z" fill="#80b6bc"/><path d="m208.6 148.92 2.79-33.2-7.27 1.45z" fill="#b9dddf"/><path d="m177.07 242.62-17.57-98.45 29.83-16.84 19.03 90.92-5.89 23.34z" fill="#b9dddf"/><path d="m182.73 213.49 1.58-9.09 16.44-22.28 1.33 6zm7-25.68-6.8-.31 15.16-18.24 1.3 6.32z" fill="#fff"/><path d="m249.07 87.48-16.41 151.48 23.08 5.08 44.22-130.74-4.96-31.02z" fill="#80b6bc"/><path d="m235.38 88.94-9.98 100.35-11.37 52.41 25.96 1.61 4-30.78 7.51-90.39-6.42 54.77-8.24 31.38 12.23-120.81z" fill="#b9dddf"/><path d="m233.08 112.33-.85 8.36 15.39-19.75.85-8.24zm-1.82 18-.84 8.48 15.39-19.29 1-9.91z" fill="#fff"/><path d="m257.56 107 33.92-3.64-13.21 140.43-31.38.25z" fill="#80b6bc"/><path d="m260.88 86.1 10.77-1.28-9.25 159.1-15.51.12z" fill="#b9dddf"/><path d="m269.91 129.05-.48 8-15.75 20.12.6-8.36 15.63-19.87zm-1.21 17.69-.48 7.87-16 21.21.6-7.88 16-21.2z" fill="#fff"/><path d="m286.88 72.34-14.66 171.09 23.14 8.97 30.05.97 15.27-184.06-28.36-1.57z" fill="#80b6bc"/><path d="m286.88 72.34-14.66 171.09 23.14 8.97 16.96-184.66z" fill="#b9dddf"/><path d="m283.48 111.84-.72 8.12 28.11-36 .73-7.87zm-1.48 17.21-.72 8.36 28-37.08.85-8.85z" fill="#fff"/><path d="m340.68 69.31 10.3 187.69 45.07 4.73 11.76-207.44-41.81-2.42-.24 2.66-5.45 7.63-5.09 1.09z" fill="#80b6bc"/><path d="m340.68 69.31-18.06 184.06 28.36 3.63 15.02-205.13-3.27 4.11-1.94 11.15-3.63 37.44.12 3.03-5.82 3.03 3.76-47.38-3.27 1.94z" fill="#b9dddf"/><path d="m328.8 190.48-.8 8.72 29.76-38.2.85-8.36-29.81 37.96zm-1.94 20.12-.84 8 30.78-40.6.6-8.12z" fill="#fff"/><path d="m899.83 221.5-14.5-37.8-13.21-1.34 8.12 42.41z" fill="#80b6bc"/><path d="m863.89 179.34 21.44 4.36-.72 41.07-17.21.97z" fill="#80b6bc"/><path d="m841.71 170.49 21.08 2.06 4.37 16.84 2.79 36.47-17.82 1.82h-5.21z" fill="#80b6bc"/><path d="m852.25 171.46 10.54 1.09 4.37 16.84.24 2.66-1.7 10.55-7.87 15.75-2.55-26.05z" fill="#b9dddf"/><path d="m852.25 171.46 6.18.6 6.31 8 2.42 9.33.12 1.33-15-19.26zm14.06 27.26-.61 3.88-.72 1.45-9.82-13-1.33-9.05 12.48 16.6z" fill="#fff"/><path d="m829.84 167.22 14.54 1.81 6.78 59.01-6.78 1.34-17.09.24z" fill="#80b6bc"/><path d="m811.42 161.4 18.66 2.54 16.72 65.8-20.72 2.66-9.69.37z" fill="#80b6bc"/><path d="m830.08 163.94 11.84 1.67 4.88 64.13-5.45.73-7.51-31.51z" fill="#b9dddf"/><path d="m797 157.64 4.61.61 36.33 72.25-21.55 4.69-16.24-.6z" fill="#80b6bc"/><path d="m801.61 158.25 17.81 1.94 2.3 62.28-5.33 12.72-3.64-23.87z" fill="#b9dddf"/><path d="m801.57 158.11 5.49.75 12.94 16.24.26 7.69-18.4-23.33-.24-1.21zm19.7 44.17-14.82-21.13-2.18-10.15 16.49 21.7z" fill="#fff"/><path d="m777.87 142.47 23.25 7.9 5.82 85.06-34.76.34z" fill="#80b6bc"/><path d="m744.9 134.62 14.9 2.18 30.9 100.45-8.36 3.27-31.39-2.9z" fill="#80b6bc"/><path d="m759.8 136.8 25.2 3.76-6.3 86.73-4.84 2.09-3.52-31.75z" fill="#b9dddf"/><path d="m782.22 179.09-.49 6.91-17.2-22.06-1.7-9.45zm-1.09 15.51-.49 6.42-12.48-16.48-1.69-9.45z" fill="#fff"/><path d="m732.9 131.96 5.88.79 22.72 106.68-21.09-1.33z" fill="#80b6bc"/><path d="m743.2 131.11 6.17 1 12 107.33s-6.06-8.24-6.06-.36l-4.61-.24.61-28.72-7.5-37.12-2.79-40z" fill="#b9dddf"/><path d="m704.91 121.17 16 3.52 25.56 114.38-13.94 5.05-23.98-4.58z" fill="#80b6bc"/><path d="m720.91 124.69 12.72 2.78 12.84 111.6-11.75 2.66-7.15-47.37z" fill="#b9dddf"/><path d="m736.17 150 1 8.6-14.9-19.14-.73-8.24 14.66 18.66zm2.19 19 1 8.48-15.38-20.35-.85-8.48 15.14 20.23z" fill="#fff"/><path d="m676.92 114.02 34.07 8.82 12.1 117.8-36.96-1.57z" fill="#80b6bc"/><path d="m695.22 117.54 15.99 3.03-.12 20.35 3.51 47.38-5.93 41.32-5.09-47.02z" fill="#b9dddf"/><path d="m711.94 152.07.61 8.24-14.18-18.06-1.09-8.72zm1.33 18.42.61 8-13.09-17.2-1.09-8.85 13.57 18.18z" fill="#fff"/><path d="m619.73 83.61 45.8 9.7 22.63 132.83-37.65 16.33z" fill="#80b6bc"/><path d="m649.05 89.79 8.61 1.82 7.38 47.62.49-45.92 12.72 2.66 13.58 144.43-34.05 1.7-4.49-65.92z" fill="#b9dddf"/><path d="m651.6 144.07 22.78.97 5.69 96.69-20.72 1.7z" fill="#80b6bc"/><path d="m616.58 104 36 4.72 11.75 134.74-15 1.7-19.33-2.33s-13.9-138.38-13.54-138.74z" fill="#80b6bc"/><path d="m645.01 116.49 7.56-7.8 11.87 134.74-10.9.15-8.12-114.65z" fill="#b9dddf"/><path d="m659 181 .72 8.12-12.72-16.33-.24-7.39zm1.57 17.45.73 8.36-13.7-18.15-.24-7.87z" fill="#fff"/><path d="m583.75 71.25 17.7 3.08 11.18 9.21 4.2-6.54 9.44 1.64 7.4 112.45 1.08 54.64-39.62 2.67z" fill="#80b6bc"/><path d="m601.43 74.4 15.39 2.67-.3 52.29 1.03 54.03-12.12-75.55z" fill="#b9dddf"/><path d="m525.95 60.59 62.4 7.39 13.93 119.11 4.9 64.47-23.15 1.7-31.8-21.65z" fill="#b9dddf"/><path d="m589.07 73.67 1.34 11.76-29.69 51-2.54-11 30.82-51.76zm2.67 23 1.58 13.7-31.51 56.73-2.54-9 32.35-61.44z" fill="#fff"/><path d="m525.95 60.59 37.68 4.48 15.63 100.09 4.77 88.1-9.74-1.73-36.96-5.44z" fill="#80b6bc"/><path d="m516.62 82.28 43.61 11.99 11.03 84.46 3.03 72.8-66.52 8.26z" fill="#b9dddf"/><path d="m565.44 134.5 1.56 11.63-28.11 48.35-2.54-11zm3 22.78 1.7 13.33-30.29 54.53-2.55-9 31-58.89z" fill="#fff"/><path d="m482.2 51.01 46.53 2.55 1.7 10.78 18.3 193.75-55.99 5.94-43.86 3.76z" fill="#b9dddf"/><path d="m528.73 53.56 7.88 3.03 12.12 201.5-16.12 1.7-.97-106.39z" fill="#80b6bc"/><path d="m367.09 262.09 27.67-174.45 44.11-36.42 43.33-.21-3.02 214.23-35.02 4.24z" fill="#80b6bc"/><path d="m367.09 262.09 15.03-176.18 17.81-35.26 38.94.57 5.29 218.26-16.73-1.69-7.51-17.7-2.6-89.35-27.52 104.04z" fill="#b9dddf"/><path d="m372.67 196.66 1.69-19.39 65.79-73.21.64 21.15-68.12 71.57zm2.78-32.84 1.94-23 61.86-74.82.52 19.23z" fill="#fff"/><path d="m774.22 138.86 13.45-6.78-2.91-2.67-10.9-.12-11.03 5.94 1.33 2.3z" fill="#6f7173"/><path d="m787.79 127.83-6.91-1.57-1.57 2.67 1.57 1.94 2.55.48 4.24.73z" fill="#9ca0a1"/><path d="m773.25 131.71.97 33.93-.97.12-.97-34.05z" fill="#9ca0a1"/><path d="m782.7 134.62.61 30.42h-.97l-.61-30.42z" fill="#9ca0a1"/><path d="m769.25 161.4.97 10.42 7.15.12 2.67-4.72-2.91-5.82z" fill="#6f7173"/><path d="m786.09 162.49-8.96-1.09.24 10.54 8.48-.6z" fill="#9ca0a1"/><path d="m759.8 136.8v-6.9l21.08-3.64v2.18 2.43l-16.72 6.66z" fill="#848585"/><path d="m808.96 232.29 12.76-9.82-48.92-2.92-40.62 5.66 50.88 18.97z" fill="#4f5253"/><path d="m752.29 135.71 2.47-1.65 15.1 98.1h-3.88z" fill="#848585"/><path d="m754.76 134.06 2.14.51 13.25 96.61h-2.31z" fill="#8e8e8e"/><path d="m743.2 140.44 13.63 13.28-9.51 14.95 13.33 10.21-12.6 11.48 15.43 11.92-11.68 18.62-.12-5.09 9.53-13.28-13.65-9.5-.36-5.46 10.59-8.56-12.53-8.76v-4.49l8.37-11.95-11.28-10.58z" fill="#737373"/><path d="m783.19 208.9.12 24.36 9.57.96 2.06-12.12-2.66-13.57z" fill="#6f7173"/><path d="m798.94 206.84 1.21 24.11-7.27 3.27-.73-25.81z" fill="#9ca0a1"/><path d="m786.7 212.53h2.3l.12 4.49-2.66-.12z" fill="#4f5253"/><path d="m781.13 202.5.36 8.22 10.79.48 1.45-3.63-1.7-4.85-2.3.12.12 1.33-2.3-.12-.12-1.45h-1.94v1.69h-1.96l.02-1.93z" fill="#737373"/><path d="m800.64 201.75-1.3.11.08 1.83-1.33.12-.11-1.87-2.07.3.12 1.93-1.82.36.17-2.12-2.35.31.25 8.48 8.47-2.54z" fill="#848585"/><path d="m749.62 228.53-10.9-95.85 2.62-2.04 14.02 99.09z" fill="#848585"/><path d="m741.34 130.64 1.86.47 12.58 98.62-4.36.77" fill="#8e8e8e"/><path d="m795.18 212.41-.12 4.24 2.31-.84v-4.49z" fill="#6f7173"/><path d="m732.18 225.21 47.61 2.47.12 21.49-47.38-5.05z" fill="#6f7173"/><path d="m821.72 222.47-42.89 5.21.84 21.49 43-6.84z" fill="#848585"/><path d="m307.36 284.14 10.38-1.71 11.05 2.86-10.96 1.71z" fill="#2b2b2b" opacity=".1"/><path d="m314.31 284.62-4.45-6.56 3.97 2.08.48-9.14 2.29 9.62 5.52-7.43-2.19 7.62 5.76-5.09-6.9 9.09z" fill="#3f8e6f"/><path d="m336.33 343.04 19.97-3.06 17.75 4.59-18.26 5.43z" fill="#2b2b2b" opacity=".1"/><path d="m350.79 343.5-10.55-13.93 9.79 6.74-2.11-13.67 6.54 14.43 3.91-12.15.4 12.18 10.04-7.23-10.83 13.93z" fill="#3f8e6f"/><path d="m797.77 279.45-11.2-1.85-11.91 3.08 11.81 1.85z" fill="#2b2b2b" opacity=".1"/><path d="m790.27 279.96 7.61-8.13-7.1 3.31.47-8.93-3.44 9.44-3.18-9.07-.42 9.28-8.52-5.24 9.75 9.55z" fill="#3f8e6f"/><path d="m748.14 334.62 15.57-2.57 16.58 4.28-16.43 2.57z" fill="#2b2b2b" opacity=".1"/><path d="m758.57 335.33-9.86-13 9.15 6.29.71-13.72 3.43 14.43 8.29-11.14-3.29 11.43 11.86-7.29-13.57 13.29z" fill="#3f8e6f"/><path d="m41.14 326.33 15.57-2.57 16.58 4.29-16.43 2.57z" fill="#2b2b2b" opacity=".1"/><path d="m51.57 327.05-5.9-12.72 5.19 6 .71-13.71 3.76 11.55 7.96-8.27-3.29 8.43 4.5-2.33-6.21 11.33z" fill="#3f8e6f"/><path d="m158.93 68.58 5.09 3.88 1.94 1.94-1.58 1.33z" fill="#35785d"/><path d="m172.5 71.37-8.48 1.09.36 3.27 8.72-.24 1.82-2.3z" fill="#3f8e6f"/><path d="m183.53 63.86-11.03 7.51.6 4.12 16-6.54z" fill="#35785d"/><path d="m188.61 57.43-5.08 6.43.24 2.66 2.54-.12.73 3.39 2.06-.84 9.57-2.55-1.09-6.78z" fill="#3f8e6f"/><path d="m196.25 51.98-3.76.73-3.88 4.72 10.06 8.97 5.82-3.39.48-4-1.21-4.97z" fill="#35785d"/><path d="m211.76 51.62-3.27-1.82-5.34 1.94-6.9.24 8.72 7.03z" fill="#3f8e6f"/><path d="m209.09 47.74-5.94 4 8.61-.12.84-2.79z" fill="#35785d"/><path d="m209.21 42.65-1.82 1.09 1.82 1.46-.12 2.54 2.91 1.09 1.58-2.06 8.96-1.82-1.45-4.36z" fill="#35785d"/><path d="m201.34 44.47 5.81-1.33.49-1.09 1.57.6v2.55z" fill="#3f8e6f"/><path d="m205.58 39.86 3.63 2.79-1.09.25-.97.24z" fill="#54af8a"/><path d="m213.58 46.77 6.78 2.06-1.33 2.43-7.27.36-2.67-3.88 2.67-.6z" fill="#54af8a"/><path d="m199.28 37.69-3.03 14.29-7.64 5.45 4.37-10.78-.49-4.6 3.64-4.49z" fill="#54af8a"/><path d="m172.62 39.14-9.21-12.85 3.88-2.78 20.48 2.78 8.36 12.73-3.15 7.63-7.03-.6z" fill="#3f8e6f"/><path d="m188.37 25.57 10.91 12.12-3.15 1.33-9.09-12.12-.12-.97z" fill="#35785d"/><path d="m188.37 25.57-1.33 1.33-20.36-2.91.61-.48z" fill="#54af8a"/><path d="m185.95 46.05-13.33-6.91 14.42-12.24z" fill="#35785d"/><path d="m216 56.95-11.03 2.06-6.3 7.39 10.91-.85 6.42-5.93.97-.85z" fill="#54af8a"/><path d="m231.51 67.13-15.51-10.18v2.67l6.54 8.24 7.27-.12.97.24z" fill="#3f8e6f"/><path d="m198.67 66.4 14.06 2.06 6.66 8.12 16 2.54-3.88-11.99-15.51-7.51-8.73 3.39z" fill="#35785d"/><path d="m212.73 68.46 6.66 8.12-3.39-16.96z" fill="#3f8e6f"/><path d="m182.56 76.82 6.54-7.87-2.79-2.55z" fill="#54af8a"/><path d="m175.77 76.82 10.54-10.42-1.57-1.33-1.21-1.21z" fill="#54af8a"/><path d="m852.74 244.4 10.34-.31-2.31 48.99-5.39-.13z" fill="#6f7173"/><path d="m852.74 244.4 9.4 19.57-.39 8.42-7.86-5.9z" fill="#2b2b2b" opacity=".1"/><path d="m820.26 251.91 41.88 12.06 10.96-15.21 17.56 3.76-29.98-30.83-11.45-7.35z" fill="#35785d"/><path d="m862.14 263.97 28.52-11.45-23.82-36.3-14.1 18.37z" fill="#3f8e6f"/><path d="m823.3 222.71 29.44 11.88 13.21-16.12 16.96 1.68-24.79-23.93-11.12-3.25z" fill="#3f8e6f"/><path d="m852.74 234.59 37.87-11.79-19.33-25.05-12.31 7.87z" fill="#54af8a"/><path d="m842.92 168.91-14.17 27.5 30.22 9.21 9.4-14.41 18.05 8.24-19.38-28.72z" fill="#35785d"/><path d="m858.97 205.62 27.45-6.17-15.02-22.3-17.93 6.31z" fill="#3f8e6f"/><path d="m846.68 156.43-15.39 19.75 22.18 7.28 11.75-10.67 13.57 3.51-14.54-21.56z" fill="#3f8e6f"/><path d="m853.47 183.46 25.32-7.16-11.27-16.6-3.52.36-4.34 4.69z" fill="#54af8a"/><path d="m854.83 122.5-14.82 34.06 19.65 8.19 6.53-10.26 7.02 3.76z" fill="#54af8a"/><path d="m859.66 164.75 13.55-6.5-18.38-35.75z" fill="#72c8a5"/><path d="m46.21 233.83 12.14 1.11-3.34 41.29-5.38.03z" fill="#6f7173"/><path d="m49.63 233.38 8.72-.57-1.85 25-9.01-9.49z" fill="#2b2b2b" opacity=".1"/><path d="m21.03 239.92 26.46 8.4 24.92-16.52 10.66 8.72-21.47-32.85-17.96-.77z" fill="#35785d"/><path d="m47.49 248.32 35.58-7.8-16.94-28.66-3.9 11.58z" fill="#3f8e6f"/><path d="m23.7 214.23 38.53 9.21 9.94-13.82 11.63 6.43-29.13-26.08-7.69-3.59z" fill="#3f8e6f"/><path d="m62.23 223.44 21.57-7.39-18.36-26.08-10.96 3.3z" fill="#54af8a"/><path d="m48.26 169.71-19.71 21.38 27.83 9.66 8.88-14.63 14.05 7.51-23.36-21.87z" fill="#35785d"/><path d="m56.38 200.75 22.93-7.12-18.74-19.56-7.18 11.37z" fill="#3f8e6f"/><path d="m45.95 156.38-15.1 16.77 22.54 12.29 11.75-15.8-5.08-4.03-5.65-11.54z" fill="#3f8e6f"/><path d="m53.39 185.44 19.24-9.73-11.8-13.95-1.26-2.66-1.7 6.42z" fill="#54af8a"/><path d="m50.31 126.63-14.36 30.77 21.92 8.12 3.27-9.09-3.48-5.18z" fill="#54af8a"/><path d="m57.87 165.52 11.51-6.67-19.07-32.22z" fill="#72c8a5"/><path d="m177.91 306.13-9.27 6-.18 4.82 31.36.18v-5.45z" fill="#446125"/><path d="m123.18 312.59-6.64 3.36-.18 4.27 24.55.09-.09-4.36z" fill="#446125"/><path d="m175.19 294.4 13.72 6.19 10.91 11.09-31.18.45.27-9.27z" fill="#709c53"/><path d="m135.09 297.4 3.82 6 1.91 12.55h-24.28l2.46-12z" fill="#709c53"/><path d="m138.91 303.4 4.91-21.91-10.46-1.54-11.92 2.28-2.44 21.72z" fill="#4f5253"/><path d="m141.46 292.31 2.36-10.82-10.46-1.54-11.92 2.28z" fill="#2b2b2b" opacity=".1"/><path d="m168.91 302.86-5.91-22.09 3.82-6.05 19.28 5.18 2.81 20.69z" fill="#4f5253"/><path d="m165.73 291.04-2.73-10.27 3.82-6.05 19.28 5.18z" fill="#2b2b2b" opacity=".1"/><path d="m115.94 180.02-8.74-29.33 2.82-.8 8.07 29.46z" fill="#709c53"/><path d="m95.49 133.07 4.57 16.42 8.75 1.74.4-7.93-5.11-6.6z" fill="#5a753d"/><path d="m108.54 127.15-4.44 9.55 4.71 14.53 6.32-6.99z" fill="#446125"/><path d="m130.87 175.04-8.6-29.32 2.68-.81 8.21 29.46z" fill="#709c53"/><path d="m110.56 127.96 4.57 16.28 8.61 2.01.41-7.8-4.98-6.73z" fill="#5a753d"/><path d="m123.61 122.04-4.44 9.68 4.57 14.53 4.98-5.78z" fill="#446125"/><path d="m121.05 170.74-8.61-29.33 2.69-.81 8.07 29.47z" fill="#709c53"/><path d="m99.66 123.25 5.65 17.35 8.61 1.35.81-8.07-5.38-6.46z" fill="#5a753d"/><path d="m114.86 115.98-5.51 11.44 4.57 14.53 6.32-6.73z" fill="#446125"/><path d="m109.48 167.11 11.84 42.78 21.8-7.54-10.9-42.78z" fill="#474747"/><path d="m109.48 167.11 4.04 14.26 19.64-18.03-16.82 1.48z" fill="#474747"/><path d="m103.43 161.32 2.69 10.23 30.54-9.29-2.96-10.89z" fill="#8e8e8e"/><path d="m117.19 188.04 19.32-8.77 33.64-.64 18.81 8.37-8.76 49.49-25 4.12-29.38-2.71z" fill="#709c53"/><path d="m125.56 243.57.26-5.67 54.38-1.41.39 5.79-26.68 5.03z" fill="#446125"/><path d="m121.44 282.23c.26-1 4.25-38.66 4.25-38.66l28.48-.64 26.54-.64-16 26.92z" fill="#738c57"/><path d="m186.1 279.9-5.51-37.62-23.41 15.66-2.37 13.21 8.19 9.62z" fill="#446125"/><path d="m121.44 282.23 41.56-1.46-5.82-22.83-7.13 4.96z" fill="#5a753d"/><path d="m115.36 188.19-7.19 35.15 22.67-6.44-6.05-32.34z" fill="#446125"/><path d="m142.7 237.39-16.88.51-17.65-14.56 14.43-4.12 9.66-10.83 12.89 4.39 28.22-7.99 5.8 6.18-6.57 14.04-15.85 2.2z" fill="#cfaa91"/><path d="m117.57 207.62 9.54-9.79 10.95 11.47-2.19 6.18-13.27 3.74z" fill="#debca4"/><path d="m145.66 212.65-18.55-14.82 8.76 17.65z" fill="#c2977b"/><path d="m156.75 227.21 23.45 9.28 8.25 2.44 1.8-17.13-11.08-10.83z" fill="#c2977b"/><path d="m200.56 225.66-9.66-16.11-11.73 1.42 9.28 27.96z" fill="#debca4"/><path d="m188.96 187 11.6 38.66-21.39-14.69z" fill="#446125"/><path d="m150.9 113.87 15.09-.94 21.64-1.61 2.71 60.5-15.74.81-16.28 13.72-11.17-3.77-12.78-15.47-2.13-15.88-1.14-11.53 4.75-8.51 6.86 12.65 5.25-3.64-15.35-17.58z" fill="#debca4"/><path d="m150.9 113.87 4.59 60.23-10.09 11.44-9.82-6.86-6.86-29.46-3.36-12.65 5.74-8.69 14.84 12.46-12.25-18.26z" fill="#c2977b"/><path d="m135.18 143.57-1.48-6.19-6.05 1.48z" fill="#8a6651"/><path d="m128.72 149.22 8.48-3.1-5.66 14.53z" fill="#8a6651"/><path d="m158.09 128.45 6.69 5.49 4.84 14.53-1.48-19.91z" fill="#c2977b"/><path d="m175.27 128.15.94 13.73 3.77-10.36 4.37-3.78z" fill="#c2977b"/><path d="m151.46 174.37-6.06 11.17 13.05 9.15 16.15-22.06z" fill="#8a6651"/><path d="m175 125.6 9.43-1.49-.08 3.63-9.08.41z" fill="#474747"/><path d="m167.87 125.87-10.57-2.26.79 4.84 10.05.11z" fill="#474747"/><path d="m156.55 98.54-19.91 9.82 7.54 5.25 6.72.26 16.32.2-.71-4.5z" fill="#474747"/><path d="m136.64 108.36-17.08 9.42 9.69 4.16 5.91.68 15.74-8.75z" fill="#737373"/><path d="m119.56 117.78 5.8 18.79 10.49-3.23 3.37 11.97 8.61-3.09-12.67-19.6z" fill="#2b2b2b"/><path d="m167.22 114.07-10.67-15.53 31.08 12.78z" fill="#8e8e8e"/><path d="m145.15 212.78 15.08-4.26-1.81-13.91-21.91-15.34-11.72 5.29 2.32 13.27z" fill="#5a753d"/><path d="m165.43 134.71a2.46 2.46 0 1 1 -2.93-1.86 2.45 2.45 0 0 1 2.93 1.86z" fill="#2b2b2b"/><path d="m182.59 133.57a2.46 2.46 0 1 1 -2.94-1.86 2.46 2.46 0 0 1 2.94 1.86z" fill="#2b2b2b"/><path d="m178.45 154.36 9.11 3.92-13.88 3.2-14.67-1.64z" fill="#8a6651"/><path d="m172.75 149.31-3.13-.84-10.61 11.37 28.55-1.56-10.95-10.35z" fill="#474747"/><path d="m176.61 147.93-3.49 3.5-3.5-2.96z" fill="#2b2b2b"/><path d="m175.27 128.15-7.13.41 1.48 19.91 6.99-.54z" fill="#e7c9b5"/><path d="m204.61 251.81-8.85 1.03 1.67 12.56 13.21 1.54 2.05-10.13-2.44-4.87 5.9 3.59 2.44-.77-4.23-10z" fill="#fce3d4"/><path d="m204.1 236.68-3.59 4.1-4.75 12.06 16.93 3.97 1.67-12.05z" fill="#eed2c1"/><path d="m216.28 213.34-8.72 4.1-7.05 23.34 13.85 3.98 7.44-16.67z" fill="#54af8a"/><path d="m244.17 193.01-19.57-4.53-17.04 28.96 13.4 12.38 7.65-6.88z" fill="#3f8e6f"/><path d="m280.59 298.85 14.02 3.08-.12 4.23-30.65.04-.17-4.27z" fill="#35785d"/><path d="m274.1 282.78 7.86 6.33 12.65 12.82h-30.94l.17-8.21z" fill="#54af8a"/><path d="m237.33 301.76 3.6 4.87-.18 4.79-25.56.08-.19-4.87z" fill="#35785d"/><path d="m236.82 290.13 1.71 5.47 2.4 11.03h-25.93l3.7-11.2z" fill="#54af8a"/><path d="m261.44 260.72 16.93 8.89 3.59 19.5-18.12 4.61-12.14-29.92z" fill="#4f5253"/><path d="m261.44 260.72 16.93 8.89-20.18 10.26-6.49-16.07z" fill="#2b2b2b" opacity=".1"/><path d="m234.09 246.19-9.84 24.96-5.55 24.28 19.83.17 14.36-34.36-5.64-3.08z" fill="#4f5253"/><path d="m234.09 246.19-9.84 24.96 20.95 8.68 7.69-18.59-5.64-3.08z" fill="#2b2b2b" opacity=".1"/><path d="m244.51 247.3 30.27-6.92 3.59 29.23-54.12 1.54 13.89-16.35z" fill="#35785d"/><path d="m255.46 226.87 19.32 13.51-50.53 30.77 5.9-31.03z" fill="#3f8e6f"/><path d="m263.67 221.74 12.14 11.97-1.03 6.67-44.63-.26-.51-5.9z" fill="#35785d"/><path d="m320.3 135.36 4.24-2.53 5.13-16.07-14.03-5.65-4.36 7.61-4.43 7z" fill="#f4c9b2"/><path d="m306.85 125.72 17.69 7.11-8.04 13.76-9.11-1.73z" fill="#c1907d"/><path d="m306.5 150.18-3.85-11.28-.51-8.55 3.67-12.91 5.47 1.28-.97 10.94 3.37 10.26z" fill="#fce3d4"/><path d="m279.05 180.7 26.68-1.19 10.77-32.92-13.85-6.41z" fill="#54af8a"/><path d="m270.85 216.35 13.33-9.49 21.55-27.35-23.09-22.15-18.2 26.93z" fill="#3f8e6f"/><path d="m241.1 208.66-13.34 7.78 1.88 17.78 46.17-.51 8.37-26.85z" fill="#3f8e6f"/><path d="m246.22 174.89-7 7.18-14.62 6.41 4.01 34.46 55.57-16.08-1.28-29.75-16.16 2.05z" fill="#54af8a"/><path d="m238.21 169.52 5.18 15.01 13.28.34 12.03 3.38 6.34-4.88 3.81-4.03 13.64-.56 3.79-60.7-50.43-.27z" fill="#fce3d4"/><path d="m256.53 139.04 9.33 5.54 6.76 11.76 7.57-.14 4.73-11.62 9.46-6.62-14.19.27-1.76 1.08-6.08.27-3.38-.81z" fill="#f4c9b2"/><path d="m238.21 169.52 1.01 12.55 12.26 9.53 2.75-12.01-1.35-52.58-7.03-9.2z" fill="#f4c9b2"/><path d="m275.61 183.56 16.88-4.78-38.26.81-5.67.95 2.92 11.06 13.21 8.34z" fill="#c1907d"/><path d="m238.21 169.52 4.46-12.48-7.38 3.69z" fill="#c1907d"/><path d="m276.95 126.74 17.7-9.47 7.49-17.1-57.91 19.13-18.22 13.23 5.14 15.85 10.97 2.19 5.9-.96 4.86-22.6z" fill="#2b2b2b"/><path d="m302.14 100.17-69.68 10.43 7.44 13.3 12.98 3.11z" fill="#474747"/><path d="m241.29 143.78-10.14 4.6 4.3 12.64 11.35-5z" fill="#fce3d4"/><path d="m237.91 148.92-3.52 1.49 6.42 4.52z" fill="#c1907d"/><path d="m295.47 130.26 6.67-30.09-25.19 26.57z" fill="#8e8e8e"/><path d="m226.01 132.53 26.87-5.52-7.43-6.63-12.99-9.78z" fill="#737373"/><path d="m256.53 139.04 7.03-4.33 5.41 4.06z" fill="#474747"/><path d="m280.19 138.23 7.84-5.41 6.35 5.14z" fill="#474747"/><path d="m272.35 139.58 6.08-.27 1.76 16.89-7.57.14z" fill="#ffefe7"/><path d="m276.81 160.13-4.19-3.79 7.57-.14z" fill="#c1907d"/><path d="m264.24 163.64 24.2-.4-4.46 10.41h-15.55z" fill="#c1907d"/><path d="m266.4 165.13h18.25l-1.22 3.24-15 .41z" fill="#fff"/><path d="m268.89 145.43a2.84 2.84 0 1 1 -2.84-2.83 2.84 2.84 0 0 1 2.84 2.83z"/><path d="m287.44 145.05a2.84 2.84 0 1 1 -2.84-2.83 2.84 2.84 0 0 1 2.84 2.83z"/><path d="m616.03 304.47-17.56 1.41-.13 4.49 36.16.38.03-4.04z" fill="#5a753d"/><path d="m623.73 284.98-7.95 8.2-17.31 12.7 36.06.83 1.25-8.14z" fill="#709c53"/><path d="m681.18 309.51 11.8 3.93.17 3.68-24.15-.21-.09-3.51z" fill="#5a753d"/><path d="m680.92 291.39-9.23 10.51-2.78 11.5 24.07.04-2.31-13.07z" fill="#709c53"/><path d="m714.81 247.96 4.77 1.54.91 11.2-9.3 2.46-4.61-7.52-.24-7.22-5.02 5.37-2.72-2.07 3.26-7.73z" fill="#a67e62"/><path d="m708.64 237.6 5.44 2.31 5.5 9.59-13 6.14-4.72-11.65z" fill="#bf9b83"/><path d="m661.11 122.65-15.82-9.27-6.71 1.32-2.76 8.33.12 8.27-5.76 37.06 17.03 3.75 20.03.88 8.77-35.06 1.5-16.4-13.89-1.38z" fill="#bf9b83"/><path d="m671.29 133.73-10.14 3.63-7.64 11.78.87-8.15 1.25-5.88 4.52-2.51z" fill="#a67e62"/><path d="m647.69 131.2 2.56 3.66.63 4.13-3.38 9.3-1.51-11.93-8.66-5.35 6.54-.69z" fill="#a67e62"/><path d="m660.56 128.25 11.28 2.7-.55 2.78-11.14-1.13z" fill="#474747"/><path d="m647.82 131.16.43-3.85-10.52 1.2-.4 2.5z" fill="#474747"/><path d="m650.25 134.86-2.75 13.43 2.63 1.27 3.38-.42 2.12-14.07z" fill="#c8ac9a"/><path d="m677.51 121.53 8.52 9.77-2.13 7.89-5.38 9.76 2.5.63 1.63 2.63 2.87-2.25 2.39-5.39 2.75 4.13 3.38 1.76-4.76 4.25-2.13 4.89-1.25 3.12-9.52 28.43-24.91-7.51-.25-6.77-21.04-8.51 37.06 4.63 6.52-36.56z" fill="#a67e62"/><path d="m682.65 152.21-1.26 3 5.76 4.39 6.89-9.14-6.13-5.89z" fill="#a67e62"/><path d="m635.82 131.93-3.73-18.33 2.73.79 3.67.84z" fill="#474747"/><path d="m661.11 122.65-29.02-9.05 15.9-14.71 13.87 12.75z" fill="#737373"/><path d="m661.11 122.65 1.63-13.26 26.06-4.27 11.38 12.68-11.52 4.36-11.15-.63z" fill="#8e8e8e"/><path d="m700.18 117.8-.38 31.58-10.6-8.09-3.17-9.99-8.52-9.77z" fill="#737373"/><path d="m686.03 131.3-7.51 17.65 4.13 3.26 5.26-7.64 6.13 5.89 5.76-1.08z" fill="#474747"/><path d="m690.78 150.96-2.25-2.14-2.63 4.64z" fill="#825940"/><path d="m687.15 159.6-4.13-3.13.63 13.27z" fill="#825940"/><path d="m647.5 148.29 3 3.38 3.01-2.53z" fill="#825940"/><path d="m673.58 174.29 2.9 17.93-24.35-8.24z" fill="#a67e62"/><path d="m629.65 201.48 10.77-4.11 11.83 8.3 8.97 14.78-8.93 18.23-8.72 2.3-9.33-.84-6.18-9.21z" fill="#35785d"/><path d="m680.72 207.24-1.14 28.95-28.5 9.28 1.17-39.8z" fill="#3f8e6f"/><path d="m636.43 176.98 47.2 8.94 1.09 7.27-3.15 20.11-2.18 2.91-27.14-10.54-22.6-4.19-3.33-12.06z" fill="#54af8a"/><path d="m706.08 212.89-22.45-26.97-4.24 30.29 8.23 6.3 12.05 3.59z" fill="#3f8e6f"/><path d="m714.08 239.91-8-27.02-18.46 9.62 14.36 22.21z" fill="#35785d"/><path d="m690.67 300.37-3.66-19.31-10.18-8-13.93 3.63 8.79 25.21z" fill="#4f5253"/><path d="m687.01 281.06-10.18-8-13.93 3.63 3.81 10.71z" fill="#2b2b2b" opacity=".1"/><path d="m615.78 293.18 4.59-22.67 10.47-11.59 14.25 12.81-9.31 26.84z" fill="#4f5253"/><path d="m620.37 270.51 10.47-11.59 14.25 12.81-4.67 13.36z" fill="#2b2b2b" opacity=".1"/><path d="m667.29 189.49-11.67-14.3 22.76 9.68z" fill="#a67e62"/><path d="m673.63 173.62-43.45-5.26 15.03 6.06 10.2 19.88 11.73-4.97z" fill="#825940"/><path d="m626.24 240.98 1.82-10.05 51.52 5.26-.03 10.13-27.38 7.63z" fill="#35785d"/><path d="m620.37 270.51 34.83-17.41 7.15 17.94.55 5.65z" fill="#54af8a"/><path d="m679.55 246.32 7.46 34.74-24.11-4.37-11.5-19z" fill="#3f8e6f"/><path d="m620.37 270.51 5.87-29.53 53.31 5.34z" fill="#35785d"/><path d="m640.22 152.94 22.04 2.14-7.09 8.27-10.8-1.06z" fill="#825940"/><path d="m642.51 154.41 1.66 3.71 11.83 1.34 2.81-3.19z" fill="#fff"/><path d="m688.8 105.12-40.81-6.23 13.12 23.76z" fill="#474747"/><path d="m604.2 176.86 25.45 24.62 6.78-24.5-14.79-13.45-11.99-3z" fill="#3f8e6f"/><path d="m604.39 136-.19 40.86 17.33-13-4.41-28.22z" fill="#35785d"/><path d="m596.28 134.42 52.34-48.59 3.88 4.24-52.35 48.59z" fill="#cdcdcc"/><path d="m600.4 143a6.52 6.52 0 1 0 -9.21-.36 6.51 6.51 0 0 0 9.21.36z" fill="#ebebea"/><path d="m661.1 65.23 10.18 3.16-3.52 11.02-50.04 45.2-9.57-10.3z" fill="#cdcdcc"/><path d="m620.75 128-6.18-6.67 56.71-52.94 2.42 10.54z" fill="#a2a2a2"/><path d="m628.39 133.94-25.57-27.63-2.3 2.06 25.56 27.63z" fill="#ebebea"/><path d="m618.33 125.33.36-7.75-7.87-.37-.25 7.88z" fill="#ebebea"/><path d="m594.82 127.03 12.36-11.39 8.97 9.69-11.76 10.67z" fill="#bf9b83"/><path d="m617.12 135.64-.97-10.31-11.76 10.67z" fill="#a67e62"/><path d="m709.31 173.25-15.27-22.79-6.89 9.14 8.52 28.54z" fill="#474747"/><path d="m698.42 156.97-4.38-6.51-6.89 9.14 2.38 8.13z" fill="#737373"/><circle cx="643.84" cy="137.14" r="2.48"/><path d="m664.34 139a2.49 2.49 0 1 1 -2.48-2.48 2.49 2.49 0 0 1 2.48 2.48z"/><path d="m407.58 306.41-2.39 11.37-33.86-11.28 2.4-15.22z" fill="#737373"/><path d="m388.09 280.51-14.36 10.77 31.46 26.5 54.2 3.25v-38.47z" fill="#4f5253"/><path d="m488.11 288.72 40.52 28.72 11.29-11.8-14.04-45.12z" fill="#4f5253"/><path d="m475.8 294.36-16.41 26.67 69.24-3.59-24.62-33.85z" fill="#737373"/><path d="m428.1 257.43-3.08 37.95 34.37 25.65 44.62-37.44z" fill="#848585"/><path d="m431.18 263.58-52.58-.38-4.87 28.08 51.29 4.1 22.23-26.41z" fill="#8e8e8e"/><path d="m445.54 241.27-42.58 8.98-24.36 12.95 68.65 5.77 56.76 14.62 21.87-23.07z" fill="#a2a2a2"/><path d="m534.91 65.59 4.64-4.06 1.17-15.35-14.01-5-7.4 12.81 7.2 12.4z" fill="#c2977b"/><path d="m519.51 56.19 20.04 5.34-6.84 16.47-12.2 1.2z" fill="#8a6651"/><path d="m519.11 88.21-1.2-17.61-2.2-9.81 3.2-12.6 4.6 2.4-1.2 9.4 4 8.2-6.2 20.62z" fill="#debca4"/><path d="m498.54 99.34 20.25 13.94 1.31 16.57-13.85 24.61-93.1-16.93.77-28.56 10.1-6.12z" fill="#b7c645"/><path d="m424.02 102.85 74.52-3.51 20.25 13.94 1.31 16.57-11.63-8.01-86.27-7.16-8.28-5.71z" fill="#e7ef78"/><path d="m423.96 237.78-7.91-18.31.1-81.94 15.61 2.1 25.11 1.51 45.03-1.91 15.99 113.66-15.17 13.21-69.77-12.61-26.1-5.8z" fill="#446125"/><path d="m497.3 150.84 9.4-20.81 18.38 129.68-9.59-2.95-5.17-9.34z" fill="#5a753d"/><path d="m502.72 266.1 22.36-6.39-14.76-12.29z" fill="#709c53"/><path d="m446.87 223.48.4 11.2 14.21 7.41 12.4-30.02-21.11-8.6z" fill="#446125"/><path d="m375.92 149-5.6 4.04-8.25-2.01 2.89-14.6z" fill="#8a6651"/><path d="m309.57 88.69h135.51v6.6h-135.51z" fill="#c3c3c3" transform="matrix(.27748234 -.96073074 .96073074 .27748234 184.25 428.98)"/><path d="m364.32 159.19a6.15 6.15 0 1 0 -7.61 4.2 6.15 6.15 0 0 0 7.61-4.2z" fill="#dcdcdb"/><path d="m386.37 21.63 11.53-1.75 3.23 11.82-28.07 86.97-13.56-4z" fill="#c3c3c3"/><path d="m379.85 120.55-9.94-2.88 27.99-97.79 8.82 7.62z" fill="#a2a2a2"/><path d="m391.84 118.02 4.04 8.74-7.81 4.31-4.09-7.4-10.23-2.95-5.62 3.09-3.09-5.61-9.31-2.69-7.4 4.09-5.24-8.08 9.01-4.97 2.25 4.86 11.67 3.37 5.62-3.09 3.09 5.61 12.61 3.64z" fill="#dcdcdb"/><path d="m359.9 127.48 9.09 7.19-4.35 16.99-11.82-2.48z" fill="#c2977b"/><path d="m380.54 144.57-5.66-7.68-4.66-8.4-10.72 6.21 2.33 3.32 5.15-1.71.31 7.19 8 4.79z" fill="#debca4"/><path d="m415.75 153.24-14.61-11.81-26.26-4.54-4.56 16.15 37.43 14.51z" fill="#54af8a"/><path d="m416.02 218.97 19.53 7.95-2.9 14.36h-10.04l-6.59-5.7z" fill="#3f8e6f"/><path d="m416.02 235.58-12.48 12.38 12.06 2.73 17.35-2.73-.3-6.68z" fill="#54af8a"/><path d="m403.54 253.49h29.41v-5.53h-24.81l-9.75-3.67z" fill="#3f8e6f"/><path d="m416.02 218.97 17.9 15.29 1.63-7.34-9.76-7.95z" fill="#35785d"/><path d="m474.46 243.28 3.06 12.21 10.06 1.2 9.02-3.8-1.54-14.14z" fill="#3f8e6f"/><path d="m496.6 252.89 6.12 13.21h-25.61l.41-10.61z" fill="#54af8a"/><path d="m477.11 270.7h25.61v-4.6l-12.81-3.93-12.8 3.93z" fill="#3f8e6f"/><path d="m495.06 238.75-19 10.92-1.6-6.39 6.31-5.6z" fill="#35785d"/><path d="m459.75 188.07 2.93 19.8-15.41 26.81-31.22-15.21 13.26-30.19 11.67-5.19z" fill="#5a753d"/><path d="m490.86 199 4.2 39.75-33.58 3.34-1.73-54.02z" fill="#709c53"/><path d="m429.31 128.53-7.11-13.85-21.06 26.75 6.61 26.12 21.31-17.71z" fill="#5a753d"/><path d="m492.63 116.09-23.16 12.14-21.02 16.21 11.3 43.63h30.37l.27-10.12 6.91-27.11z" fill="#5a753d"/><path d="m456.87 141.14 2.88 43.89v3.04h-30.44l-.08-14.26-7.03-59.13 14.85-1.4.53 6.18 6.31-.3 3.32 14.27z" fill="#709c53"/><path d="m490.12 188.07-60.91-6.11-.9 9.3 62.55 7.74z" fill="#98c16d"/><path d="m525.31 117.02-13.01-16.01-22.02 13.72-5.18-.76 5.81 20.74 6.39 16.13z" fill="#738c57"/><path d="m457.14 135.6-8.39-8.7-4.86-7.74-8.84 1.29.77 13.06 21.05 7.63 4.99-4.47z" fill="#35785d"/><path d="m457.14 135.6-.27 5.54 34.04-6.43 2.38-21.49-8.25-1.5-8.47 11.51z" fill="#54af8a"/><path d="m487.14 112.47 2.18-30.7 4.07-8.46 7.71 3.55.65 30.91-8.46 5.45z" fill="#2b2b2b"/><path d="m424.52 72.87-2.32 41.81 12.26-1.07 1.96-44.83z" fill="#2b2b2b"/><path d="m435.05 120.45 39.41-1.86 11.16-7.97 5.29-60.52-61.61-2.65z" fill="#debca4"/><path d="m440.98 120.17 40.32-5.3 4.85-58.87 7.24-11.53-6.33 73.69-1.44 9.17-28.48 8.27-14.82-7.28z" fill="#c2977b"/><path d="m463.26 95.59-5.78 3.95-5.79-3.95z" fill="#8a6651"/><path d="m481.33 80.42-12.09 3.71-5.98 11.46-3.41-18.51 17.21-1.56z" fill="#c2977b"/><path d="m451.69 95.59-8.59-11.46-9.48-3.71 4.26-2.69 7.83-.87 9.39.22v11.47z" fill="#c2977b"/><path d="m451.69 95.59 5.79 1.45 5.78-1.45-3.41-18.51h-4.75z" fill="#e7c9b5"/><path d="m455.1 77.08-17.22.65-4.26 2.69 4.26-7.11z" fill="#474747"/><path d="m459.85 77.08 17.21.65 4.27 2.69-4.27-7.11z" fill="#474747"/><path d="m455.51 130.93-14.53-10.76 46.08-2.01z" fill="#8a6651"/><path d="m501.1 76.86-1.22-30.68-12.82-3.2-10.06-7.66h-34.36l-7.59 9.15-13.12 5.63 2.59 22.77 6.88 1.19-1.59-21.37 26.59 8.7 28.76-12.95 4.86 37.11z" fill="#4f5253"/><path d="m456.4 61.39 20.6-26.07 22.88 10.86-13.73 9.82z" fill="#6f7173"/><path d="m482.52 100.1-48.85 2.83 1.38 17.52 46.28-2.04z" fill="#c2977b"/><path d="m442.64 35.32 13.76 26.07-26.36-5.59-8.11-5.7z" fill="#474747"/><path d="m482.52 100.1 6.31-2.54-1.77 20.6-5.73.25z" fill="#b38b71"/><circle cx="445.71" cy="84.13" fill="#2b2b2b" r="2.93"/><path d="m469 84.13a2.93 2.93 0 1 0 3-2.93 2.93 2.93 0 0 0 -3 2.93z" fill="#2b2b2b"/><path d="m446.39 104.44 23.79-1.35-4.8 11.18-13.13.67z" fill="#8a6651"/><path d="m449.55 105.86 17.82-1.01-1.92 4.58-13.65.79z" fill="#fff"/><path d="m517.91 70.6-11.56 34.06 18.96 12.36 7.4-39.02z" fill="#54af8a"/></svg>