<svg id="ILLUSTRATION" xmlns="http://www.w3.org/2000/svg" viewBox="0 0 900 350"><defs><style>.cls-1{fill:#dcdcdb;}.cls-2{fill:#ebebea;}.cls-26,.cls-3{fill:#2b2b2b;}.cls-3{opacity:0.1;}.cls-4{fill:#b9dddf;}.cls-5{fill:#80b6bc;}.cls-6{fill:#fff;}.cls-7{fill:#6f7173;}.cls-8{fill:#9ca0a1;}.cls-9{fill:#848585;}.cls-10{fill:#4f5253;}.cls-11{fill:#8e8e8e;}.cls-12{fill:#737373;}.cls-13{fill:#3f8e6f;}.cls-14{fill:#35785d;}.cls-15{fill:#54af8a;}.cls-16{fill:#72c8a5;}.cls-17{fill:#446125;}.cls-18{fill:#709c53;}.cls-19{fill:#5a753d;}.cls-20{fill:#474747;}.cls-21{fill:#738c57;}.cls-22{fill:#cfaa91;}.cls-23{fill:#debca4;}.cls-24{fill:#c2977b;}.cls-25{fill:#8a6651;}.cls-27{fill:#e7c9b5;}.cls-28{fill:#fce3d4;}.cls-29{fill:#eed2c1;}.cls-30{fill:#f4c9b2;}.cls-31{fill:#c1907d;}.cls-32{fill:#ffefe7;}.cls-33{fill:#a67e62;}.cls-34{fill:#bf9b83;}.cls-35{fill:#c8ac9a;}.cls-36{fill:#825940;}.cls-37{fill:#cdcdcc;}.cls-38{fill:#a2a2a2;}.cls-39{fill:#b7c645;}.cls-40{fill:#e7ef78;}.cls-41{fill:#c3c3c3;}.cls-42{fill:#98c16d;}.cls-43{fill:#b38b71;}</style></defs><title>diplomats_Protagonist_ENFJ_introduction</title><g id="cloud"><polygon class="cls-1" points="817.67 89 763.67 90.33 799.33 105 826 102.67 856.33 107.67 890.67 90 850.67 97 817.67 89"/><polygon class="cls-1" points="112.33 58.84 72.67 65.17 20.75 60.59 64.33 77.17 107.33 76.17 145.67 62.17 112.33 58.84"/><polygon class="cls-1" points="599.67 5.91 528.33 16.17 600.33 25.65 650 41.75 716.33 13.8 654.33 23.28 599.67 5.91"/><polygon class="cls-2" points="528.33 16.17 597.5 0.08 658.25 11.25 716.33 13.8 654.33 26.84 595.33 12.62 528.33 16.17"/><polygon class="cls-2" points="20.75 60.59 73.33 60.84 102.67 52.84 145.67 62.17 100.33 64.5 66.33 70.17 20.75 60.59"/><polygon class="cls-2" points="763.67 90.33 816 82 857.33 89.33 890.67 90 855.67 100.67 763.67 90.33"/></g><g id="shadows"><polygon class="cls-3" points="815.2 290.43 858.46 285.13 899.67 291.79 859.32 299.15 815.2 290.43"/><polygon class="cls-3" points="10.56 274.91 53.81 269.61 95.02 276.28 54.67 283.63 10.56 274.91"/><polygon class="cls-3" points="90.49 317.11 153.19 308.85 212.92 319.24 154.43 330.69 90.49 317.11"/><polygon class="cls-3" points="195.64 308.13 258.34 299.87 318.07 310.26 259.58 321.72 195.64 308.13"/><polygon class="cls-3" points="581.07 311.21 657.35 302.95 730 313.34 658.85 324.79 581.07 311.21"/><polygon class="cls-3" points="338.16 301.03 444.17 281.19 569.33 303.08 528.63 331.12 411.34 331.12 338.16 301.03"/></g><g id="ice"><polygon class="cls-4" points="0.08 221.33 10.49 188.18 25.64 185.15 18.97 224.05 0.08 221.33"/><polygon class="cls-5" points="6.01 223.19 11.1 200.9 20.06 199.33 15.1 224.41 6.01 223.19"/><polygon class="cls-4" points="23.09 183.82 13.64 224.53 33.27 225.26 39.33 180.06 23.09 183.82"/><path class="cls-6" d="M18.49,203.69,17,210l21.32-22.66.73-5.33ZM15.1,218.47l-1.34,5.94L36.91,199.2l.72-5.45L15.22,218.47Z"/><polygon class="cls-5" points="50.96 178.36 34.8 185.74 27.58 224.77 36.54 227.44 51.33 225.86 50.96 178.36"/><polygon class="cls-4" points="50.96 178.36 39.21 179.34 34.36 216.9 34.12 226.71 36.54 227.44 51.33 225.86 50.96 178.36"/><path class="cls-6" d="M35.21,210.48l-.73,5.57,16.6-17.57v-4.61L35.21,210.6Zm-1,12.35-.12,3.88.36.12,16.6-18.05v-4.49L34.24,223Z"/><polygon class="cls-5" points="49.51 174.25 44.66 227.92 58.6 227.92 64.65 170.49 49.51 174.25"/><polygon class="cls-4" points="58.11 172.06 54.23 173.03 52.9 187.21 58.11 172.06"/><polygon class="cls-4" points="49.87 190.48 46.84 228.77 60.41 229.62 68.65 227.56 68.29 189.39 49.87 190.48"/><polygon class="cls-5" points="60.41 178.73 55.08 229.62 65.26 230.1 80.89 229.01 85.25 175.7 60.41 178.73"/><polygon class="cls-5" points="74.47 167.7 53.39 228.7 76.65 231.44 104.64 230.59 108.03 163.82 74.47 167.7"/><polygon class="cls-4" points="74.47 167.7 62.38 168.08 65.86 195.45 74.47 167.7"/><polygon class="cls-5" points="78.95 162.97 67.32 230.95 91.07 231.44 85.01 162.25 78.95 162.97"/><path class="cls-4" d="M75.8,231.07l9.07,1.22c1.94-10.66,6.32-37.81,10.93-60l1-11.5L85,162.25Z"/><polygon class="cls-5" points="92.89 158.13 80.17 232.77 94.46 232.52 112.88 229.01 115.3 156.68 92.89 158.13"/><polygon class="cls-4" points="73.78 234.09 88.04 232.65 97.97 204.41 94.46 232.52 100.16 232.4 100.4 232.28 108.28 157.16 100.4 157.64 94.34 190.36 73.78 234.09"/><path class="cls-6" d="M105.49,184.3l.6-5.33L93.74,192.66l-2.43,7.27,14.18-15.51ZM106.7,173l.48-5.09L96.52,179.21,95.43,185l11.27-11.88Z"/><polygon class="cls-5" points="113.97 144.68 100.16 232.4 130.81 229.74 139.78 229.01 147.29 141.28 113.97 144.68"/><polygon class="cls-4" points="128.39 143.23 118.45 144.19 111.55 208.05 122.21 182.12 128.39 143.23"/><polygon class="cls-5" points="129.12 153.04 152.99 151.71 148.02 229.74 121.24 231.07 129.12 153.04"/><path class="cls-4" d="M132.63,152.8l7.39-.37-5.7,36.72-6,20.35,4.36-56.58Zm-2.54,77.79-4.85.24,5.09-17.09Z"/><polygon class="cls-5" points="147.29 133.65 140.14 166.37 136.63 230.71 167.65 237.37 182.31 128.68 147.29 133.65"/><path class="cls-4" d="M147.29,133.65l-7.15,32.72-3.51,64.34,8.36,1.81L157.84,132.2l-10.55,1.58Zm1.82,99.73,3,.6,4.48-52.1L149,233.26Z"/><path class="cls-6" d="M141.11,162.13l-1,4.24-.12,1.45,15.27-16.23.72-5.22-15,15.76Zm-1.33,11.75-.24,4.85L154,163l.72-5.58-14.9,16.36Z"/><polygon class="cls-5" points="160.13 236.04 165.47 160.31 184.96 127.99 200.35 125.26 195.76 239.07 176.86 241.73 160.13 236.04"/><path class="cls-6" d="M164,180.3l.61-8.12,19.26-25.81-1.33,9.33Z"/><polygon class="cls-5" points="197.78 238.7 198.67 118.26 236.47 110.63 231.87 241.13 208.97 239.07 197.78 238.7"/><polygon class="cls-4" points="208.6 148.92 211.39 115.72 204.12 117.17 208.6 148.92"/><polygon class="cls-4" points="177.07 242.62 159.5 144.17 189.33 127.33 208.36 218.25 202.47 241.59 177.07 242.62"/><path class="cls-6" d="M182.73,213.49l1.58-9.09,16.44-22.28,1.33,6Zm7-25.68-6.8-.31,15.16-18.24,1.3,6.32Z"/><polygon class="cls-5" points="249.07 87.48 232.66 238.96 255.74 244.04 299.96 113.3 295 82.28 249.07 87.48"/><polygon class="cls-4" points="235.38 88.94 225.4 189.29 214.03 241.7 239.99 243.31 243.99 212.53 251.5 122.14 245.08 176.91 236.84 208.29 249.07 87.48 235.38 88.94"/><path class="cls-6" d="M233.08,112.33l-.85,8.36,15.39-19.75.85-8.24Zm-1.82,18-.84,8.48,15.39-19.29,1-9.91Z"/><polygon class="cls-5" points="257.56 107 291.48 103.36 278.27 243.79 246.89 244.04 257.56 107"/><polygon class="cls-4" points="260.88 86.1 271.65 84.82 262.4 243.92 246.89 244.04 260.88 86.1"/><path class="cls-6" d="M269.91,129.05l-.48,8-15.75,20.12.6-8.36,15.63-19.87Zm-1.21,17.69-.48,7.87-16,21.21.6-7.88,16-21.2Z"/><polygon class="cls-5" points="286.88 72.34 272.22 243.43 295.36 252.4 325.41 253.37 340.68 69.31 312.32 67.74 286.88 72.34"/><polygon class="cls-4" points="286.88 72.34 272.22 243.43 295.36 252.4 312.32 67.74 286.88 72.34"/><path class="cls-6" d="M283.48,111.84l-.72,8.12,28.11-36,.73-7.87ZM282,129.05l-.72,8.36,28-37.08.85-8.85Z"/><polygon class="cls-5" points="340.68 69.31 350.98 257 396.05 261.73 407.81 54.29 366 51.87 365.76 54.53 360.31 62.16 355.22 63.25 340.68 69.31"/><polygon class="cls-4" points="340.68 69.31 322.62 253.37 350.98 257 350.98 257 366 51.87 362.73 55.98 360.79 67.13 357.16 104.57 357.28 107.6 351.46 110.63 355.22 63.25 351.95 65.19 340.68 69.31"/><path class="cls-6" d="M328.8,190.48,328,199.2,357.76,161l.85-8.36L328.8,190.6Zm-1.94,20.12-.84,8L356.8,178l.6-8.12Z"/><polygon class="cls-5" points="899.83 221.5 885.33 183.7 872.12 182.36 880.24 224.77 899.83 221.5"/><polygon class="cls-5" points="863.89 179.34 885.33 183.7 884.61 224.77 867.4 225.74 863.89 179.34"/><polygon class="cls-5" points="841.71 170.49 862.79 172.55 867.16 189.39 869.95 225.86 852.13 227.68 846.92 227.68 841.71 170.49"/><polygon class="cls-4" points="852.25 171.46 862.79 172.55 867.16 189.39 867.4 192.05 865.7 202.6 857.83 218.35 855.28 192.3 852.25 171.46"/><path class="cls-6" d="M852.25,171.46l6.18.6,6.31,8,2.42,9.33.12,1.33-15-19.26Zm14.06,27.26-.61,3.88-.72,1.45-9.82-13L853.83,182l12.48,16.6Z"/><polygon class="cls-5" points="829.84 167.22 844.38 169.03 851.16 228.04 844.38 229.38 827.29 229.62 829.84 167.22"/><polygon class="cls-5" points="811.42 161.4 830.08 163.94 846.8 229.74 826.08 232.4 816.39 232.77 811.42 161.4"/><polygon class="cls-4" points="830.08 163.94 841.92 165.61 846.8 229.74 841.35 230.47 841.35 230.47 833.84 198.96 830.08 163.94"/><polygon class="cls-5" points="797 157.64 801.61 158.25 837.94 230.5 816.39 235.19 800.15 234.59 797 157.64"/><polygon class="cls-4" points="801.61 158.25 819.42 160.19 821.72 222.47 816.39 235.19 812.75 211.32 801.61 158.25"/><path class="cls-6" d="M801.57,158.11l5.49.75L820,175.1l.26,7.69-18.4-23.33-.24-1.21Zm19.7,44.17-14.82-21.13L804.27,171l16.49,21.7Z"/><polygon class="cls-5" points="777.87 142.47 801.12 150.37 806.94 235.43 772.18 235.77 777.87 142.47"/><polygon class="cls-5" points="744.9 134.62 759.8 136.8 790.7 237.25 782.34 240.52 750.95 237.62 744.9 134.62"/><polygon class="cls-4" points="759.8 136.8 785 140.56 778.7 227.29 773.86 229.38 770.34 197.63 759.8 136.8"/><path class="cls-6" d="M782.22,179.09l-.49,6.91-17.2-22.06-1.7-9.45Zm-1.09,15.51-.49,6.42-12.48-16.48-1.69-9.45Z"/><polygon class="cls-5" points="732.9 131.96 738.78 132.75 761.5 239.43 740.41 238.1 732.9 131.96"/><path class="cls-4" d="M743.2,131.11l6.17,1,12,107.33s-6.06-8.24-6.06-.36l-4.61-.24.61-28.72L743.81,173l-2.79-40h0Z"/><polygon class="cls-5" points="704.91 121.17 720.91 124.69 746.47 239.07 732.53 244.12 708.55 239.54 704.91 121.17"/><polygon class="cls-4" points="720.91 124.69 733.63 127.47 746.47 239.07 734.72 241.73 727.57 194.36 720.91 124.69"/><path class="cls-6" d="M736.17,150l1,8.6-14.9-19.14-.73-8.24,14.66,18.66Zm2.19,19,1,8.48-15.38-20.35-.85-8.48,15.14,20.23Z"/><polygon class="cls-5" points="676.92 114.02 710.99 122.84 723.09 240.64 686.13 239.07 676.92 114.02"/><polygon class="cls-4" points="695.22 117.54 711.21 120.57 711.09 140.92 714.6 188.3 708.67 229.62 703.58 182.6 695.22 117.54"/><path class="cls-6" d="M711.94,152.07l.61,8.24-14.18-18.06-1.09-8.72Zm1.33,18.42.61,8-13.09-17.2-1.09-8.85,13.57,18.18Z"/><polygon class="cls-5" points="619.73 83.61 665.53 93.31 688.16 226.14 650.51 242.47 619.73 83.61"/><polygon class="cls-4" points="649.05 89.79 657.66 91.61 665.04 139.23 665.53 93.31 678.25 95.97 691.83 240.4 657.78 242.1 653.29 176.18 649.05 89.79"/><polygon class="cls-5" points="651.6 144.07 674.38 145.04 680.07 241.73 659.35 243.43 651.6 144.07"/><path class="cls-5" d="M616.58,104l36,4.72,11.75,134.74-15,1.7L630,242.83S616.1,104.45,616.46,104.09Z"/><polygon class="cls-4" points="645.01 116.49 652.57 108.69 664.44 243.43 653.54 243.58 645.42 128.93 645.01 116.49"/><path class="cls-6" d="M659,181l.72,8.12L647,172.79l-.24-7.39Zm1.57,17.45.73,8.36L647.6,188.66l-.24-7.87Z"/><polygon class="cls-5" points="583.75 71.25 601.45 74.33 612.63 83.54 616.83 77 626.27 78.64 633.67 191.09 634.75 245.73 595.13 248.4 583.75 71.25"/><polygon class="cls-4" points="601.43 74.4 616.82 77.07 616.52 129.36 617.55 183.39 605.43 107.84 601.43 74.4"/><polygon class="cls-4" points="525.95 60.59 588.35 67.98 602.28 187.09 607.18 251.56 584.03 253.26 552.23 231.61 525.95 60.59"/><path class="cls-6" d="M589.07,73.67l1.34,11.76-29.69,51-2.54-11L589,73.67Zm2.67,23,1.58,13.7L561.81,167.1l-2.54-9,32.35-61.44Z"/><polygon class="cls-5" points="525.95 60.59 563.63 65.07 579.26 165.16 584.03 253.26 574.29 251.53 537.33 246.09 525.95 60.59"/><polygon class="cls-4" points="516.62 82.28 560.23 94.27 571.26 178.73 574.29 251.53 507.77 259.79 516.62 82.28"/><path class="cls-6" d="M565.44,134.5,567,146.13l-28.11,48.35-2.54-11Zm3,22.78,1.7,13.33-30.29,54.53-2.55-9,31-58.89Z"/><polygon class="cls-4" points="482.2 51.01 528.73 53.56 530.43 64.34 548.73 258.09 492.74 264.03 448.88 267.79 482.2 51.01"/><polygon class="cls-5" points="528.73 53.56 536.61 56.59 548.73 258.09 532.61 259.79 531.64 153.4 528.73 53.56"/><polygon class="cls-5" points="367.09 262.09 394.76 87.64 438.87 51.22 482.2 51.01 479.18 265.24 444.16 269.48 367.09 262.09"/><polygon class="cls-4" points="367.09 262.09 382.12 85.91 399.93 50.65 438.87 51.22 444.16 269.48 427.43 267.79 419.92 250.09 417.32 160.74 389.8 264.78 367.09 262.09"/><path class="cls-6" d="M372.67,196.66l1.69-19.39,65.79-73.21.64,21.15-68.12,71.57Zm2.78-32.84,1.94-23L439.25,66l.52,19.23Z"/><polygon class="cls-7" points="774.22 138.86 787.67 132.08 784.76 129.41 773.86 129.29 762.83 135.23 764.16 137.53 774.22 138.86"/><polygon class="cls-8" points="787.79 127.83 780.88 126.26 779.31 128.93 780.88 130.87 783.43 131.35 787.67 132.08 787.79 127.83"/><polygon class="cls-8" points="773.25 131.71 774.22 165.64 773.25 165.76 772.28 131.71 773.25 131.71"/><polygon class="cls-8" points="782.7 134.62 783.31 165.04 782.34 165.04 781.73 134.62 782.7 134.62"/><polygon class="cls-7" points="769.25 161.4 770.22 171.82 777.37 171.94 780.04 167.22 777.13 161.4 769.25 161.4"/><polygon class="cls-8" points="786.09 162.49 777.13 161.4 777.37 171.94 785.85 171.34 786.09 162.49"/><polygon class="cls-9" points="759.8 136.8 759.8 129.9 780.88 126.26 780.88 128.44 780.88 130.87 764.16 137.53 759.8 136.8"/><polygon class="cls-10" points="808.96 232.29 821.72 222.47 772.8 219.55 732.18 225.21 783.06 244.18 808.96 232.29"/><polygon class="cls-9" points="752.29 135.71 754.76 134.06 769.86 232.16 765.98 232.16 752.29 135.71"/><polygon class="cls-11" points="754.76 134.06 756.9 134.57 770.15 231.18 767.84 231.18 754.76 134.06"/><polygon class="cls-12" points="743.2 140.44 756.83 153.72 747.32 168.67 760.65 178.88 748.05 190.36 763.48 202.28 751.8 220.9 751.68 215.81 761.21 202.53 747.56 193.03 747.2 187.57 757.79 179.01 745.26 170.25 745.26 165.76 753.63 153.81 742.35 143.23 743.2 140.44"/><polygon class="cls-7" points="783.19 208.9 783.31 233.26 792.88 234.22 794.94 222.1 792.28 208.53 783.19 208.9"/><polygon class="cls-8" points="798.94 206.84 800.15 230.95 792.88 234.22 792.15 208.41 798.94 206.84"/><polygon class="cls-10" points="786.7 212.53 789 212.53 789.12 217.02 786.46 216.9 786.7 212.53"/><polygon class="cls-12" points="781.13 202.5 781.49 210.72 792.28 211.2 793.73 207.57 792.03 202.72 789.73 202.84 789.85 204.17 787.55 204.05 787.43 202.6 785.49 202.6 785.49 204.29 783.53 204.29 783.55 202.36 781.13 202.5"/><polygon class="cls-9" points="800.64 201.75 799.34 201.86 799.42 203.69 798.09 203.81 797.98 201.94 795.91 202.24 796.03 204.17 794.21 204.53 794.38 202.41 792.03 202.72 792.28 211.2 800.75 208.66 800.64 201.75"/><polygon class="cls-9" points="749.62 228.53 738.72 132.68 741.34 130.64 755.36 229.73 749.62 228.53"/><polyline class="cls-11" points="741.34 130.64 743.2 131.11 755.78 229.73 751.42 230.5"/><polygon class="cls-7" points="795.18 212.41 795.06 216.65 797.37 215.81 797.37 211.32 795.18 212.41"/><polygon class="cls-7" points="732.18 225.21 779.79 227.68 779.91 249.17 732.53 244.12 732.18 225.21"/><polygon class="cls-9" points="821.72 222.47 778.83 227.68 779.67 249.17 822.67 242.33 821.72 222.47"/></g><g id="flowers"><polygon class="cls-3" points="307.36 284.14 317.74 282.43 328.79 285.29 317.83 287 307.36 284.14"/><polygon class="cls-13" points="314.31 284.62 309.86 278.06 313.83 280.14 314.31 271 316.6 280.62 322.12 273.19 319.93 280.81 325.69 275.72 318.79 284.81 314.31 284.62"/><polygon class="cls-3" points="336.33 343.04 356.3 339.98 374.05 344.57 355.79 350 336.33 343.04"/><polygon class="cls-13" points="350.79 343.5 340.24 329.57 350.03 336.31 347.92 322.64 354.46 337.07 358.37 324.92 358.77 337.1 368.81 329.87 357.98 343.8 350.79 343.5"/><polygon class="cls-3" points="797.77 279.45 786.57 277.6 774.66 280.68 786.47 282.53 797.77 279.45"/><polygon class="cls-13" points="790.27 279.96 797.88 271.83 790.78 275.14 791.25 266.21 787.81 275.65 784.63 266.58 784.21 275.86 775.69 270.62 785.44 280.17 790.27 279.96"/><polygon class="cls-3" points="748.14 334.62 763.71 332.05 780.29 336.33 763.86 338.9 748.14 334.62"/><polygon class="cls-13" points="758.57 335.33 748.71 322.33 757.86 328.62 758.57 314.9 762 329.33 770.29 318.19 767 329.62 778.86 322.33 765.29 335.62 758.57 335.33"/><polygon class="cls-3" points="41.14 326.33 56.71 323.76 73.29 328.05 56.86 330.62 41.14 326.33"/><polygon class="cls-13" points="51.57 327.05 45.67 314.33 50.86 320.33 51.57 306.62 55.33 318.17 63.29 309.9 60 318.33 64.5 316 58.29 327.33 51.57 327.05"/></g><g id="dragon"><polygon class="cls-14" points="158.93 68.58 164.02 72.46 165.96 74.4 164.38 75.73 158.93 68.58"/><polygon class="cls-13" points="172.5 71.37 164.02 72.46 164.38 75.73 173.1 75.49 174.92 73.19 172.5 71.37"/><polygon class="cls-14" points="183.53 63.86 172.5 71.37 173.1 75.49 189.1 68.95 183.53 63.86"/><polygon class="cls-13" points="188.61 57.43 183.53 63.86 183.77 66.52 186.31 66.4 187.04 69.79 189.1 68.95 198.67 66.4 197.58 59.62 188.61 57.43"/><polygon class="cls-14" points="196.25 51.98 192.49 52.71 188.61 57.43 198.67 66.4 204.49 63.01 204.97 59.01 203.76 54.04 196.25 51.98"/><polygon class="cls-13" points="211.76 51.62 208.49 49.8 203.15 51.74 196.25 51.98 204.97 59.01 211.76 51.62"/><polygon class="cls-14" points="209.09 47.74 203.15 51.74 211.76 51.62 212.6 48.83 209.09 47.74"/><polygon class="cls-14" points="209.21 42.65 207.39 43.74 209.21 45.2 209.09 47.74 212 48.83 213.58 46.77 222.54 44.95 221.09 40.59 209.21 42.65"/><polygon class="cls-13" points="201.34 44.47 207.15 43.14 207.64 42.05 209.21 42.65 209.21 45.2 201.34 44.47"/><polygon class="cls-15" points="205.58 39.86 209.21 42.65 208.12 42.9 207.15 43.14 205.58 39.86"/><polygon class="cls-15" points="213.58 46.77 220.36 48.83 219.03 51.26 211.76 51.62 209.09 47.74 211.76 47.14 213.58 46.77"/><polygon class="cls-15" points="199.28 37.69 196.25 51.98 188.61 57.43 192.98 46.65 192.49 42.05 196.13 37.56 199.28 37.69"/><polygon class="cls-13" points="172.62 39.14 163.41 26.29 167.29 23.51 187.77 26.29 196.13 39.02 192.98 46.65 185.95 46.05 172.62 39.14"/><polygon class="cls-14" points="188.37 25.57 199.28 37.69 196.13 39.02 187.04 26.9 186.92 25.93 188.37 25.57"/><polygon class="cls-15" points="188.37 25.57 187.04 26.9 166.68 23.99 167.29 23.51 188.37 25.57"/><polygon class="cls-14" points="185.95 46.05 172.62 39.14 187.04 26.9 185.95 46.05"/><polygon class="cls-15" points="216 56.95 204.97 59.01 198.67 66.4 209.58 65.55 216 59.62 216.97 58.77 216 56.95"/><polygon class="cls-13" points="231.51 67.13 216 56.95 216 59.62 222.54 67.86 229.81 67.74 230.78 67.98 231.51 67.13"/><polygon class="cls-14" points="198.67 66.4 212.73 68.46 219.39 76.58 235.39 79.12 231.51 67.13 216 59.62 207.27 63.01 198.67 66.4"/><polygon class="cls-13" points="212.73 68.46 219.39 76.58 216 59.62 212.73 68.46"/><polygon class="cls-15" points="182.56 76.82 189.1 68.95 186.31 66.4 182.56 76.82"/><polygon class="cls-15" points="175.77 76.82 186.31 66.4 184.74 65.07 183.53 63.86 175.77 76.82"/></g><g id="trees"><polygon class="cls-7" points="852.74 244.4 863.08 244.09 860.77 293.08 855.38 292.95 852.74 244.4"/><polygon class="cls-3" points="852.74 244.4 862.14 263.97 861.75 272.39 853.89 266.49 852.74 244.4"/><polygon class="cls-14" points="820.26 251.91 862.14 263.97 873.1 248.76 890.66 252.52 860.68 221.69 849.23 214.34 820.26 251.91"/><polygon class="cls-13" points="862.14 263.97 890.66 252.52 866.84 216.22 852.74 234.59 862.14 263.97"/><polygon class="cls-13" points="823.3 222.71 852.74 234.59 865.95 218.47 882.91 220.15 858.12 196.22 847 192.97 823.3 222.71"/><polygon class="cls-15" points="852.74 234.59 890.61 222.8 871.28 197.75 858.97 205.62 852.74 234.59"/><polygon class="cls-14" points="842.92 168.91 828.75 196.41 858.97 205.62 868.37 191.21 886.42 199.45 867.04 170.73 842.92 168.91"/><polygon class="cls-13" points="858.97 205.62 886.42 199.45 871.4 177.15 853.47 183.46 858.97 205.62"/><polygon class="cls-13" points="846.68 156.43 831.29 176.18 853.47 183.46 865.22 172.79 878.79 176.3 864.25 154.74 846.68 156.43"/><polygon class="cls-15" points="853.47 183.46 878.79 176.3 867.52 159.7 864 160.06 859.66 164.75 853.47 183.46"/><polygon class="cls-15" points="854.83 122.5 840.01 156.56 859.66 164.75 866.19 154.49 873.21 158.25 854.83 122.5"/><polygon class="cls-16" points="859.66 164.75 873.21 158.25 854.83 122.5 859.66 164.75"/><polygon class="cls-7" points="46.21 233.83 58.35 234.94 55.01 276.23 49.63 276.26 46.21 233.83"/><polygon class="cls-3" points="49.63 233.38 58.35 232.81 56.5 257.81 47.49 248.32 49.63 233.38"/><polygon class="cls-14" points="21.03 239.92 47.49 248.32 72.41 231.8 83.07 240.52 61.6 207.67 43.64 206.9 21.03 239.92"/><polygon class="cls-13" points="47.49 248.32 83.07 240.52 66.13 211.86 62.23 223.44 47.49 248.32"/><polygon class="cls-13" points="23.7 214.23 62.23 223.44 72.17 209.62 83.8 216.05 54.67 189.97 46.98 186.38 23.7 214.23"/><polygon class="cls-15" points="62.23 223.44 83.8 216.05 65.44 189.97 54.48 193.27 62.23 223.44"/><polygon class="cls-14" points="48.26 169.71 28.55 191.09 56.38 200.75 65.26 186.12 79.31 193.63 55.95 171.76 48.26 169.71"/><polygon class="cls-13" points="56.38 200.75 79.31 193.63 60.57 174.07 53.39 185.44 56.38 200.75"/><polygon class="cls-13" points="45.95 156.38 30.85 173.15 53.39 185.44 65.14 169.64 60.06 165.61 54.41 154.07 45.95 156.38"/><polygon class="cls-15" points="53.39 185.44 72.63 175.71 60.83 161.76 59.57 159.1 57.87 165.52 53.39 185.44"/><polygon class="cls-15" points="50.31 126.63 35.95 157.4 57.87 165.52 61.14 156.43 57.66 151.25 50.31 126.63"/><polygon class="cls-16" points="57.87 165.52 69.38 158.85 50.31 126.63 57.87 165.52"/></g><g id="character_1" data-name="character 1"><polygon class="cls-17" points="177.91 306.13 168.64 312.13 168.46 316.95 199.82 317.13 199.82 311.68 177.91 306.13"/><polygon class="cls-17" points="123.18 312.59 116.54 315.95 116.36 320.22 140.91 320.31 140.82 315.95 123.18 312.59"/><polygon class="cls-18" points="175.19 294.4 188.91 300.59 199.82 311.68 168.64 312.13 168.91 302.86 175.19 294.4"/><polygon class="cls-18" points="135.09 297.4 138.91 303.4 140.82 315.95 116.54 315.95 119 303.95 135.09 297.4"/><polygon class="cls-10" points="138.91 303.4 143.82 281.49 133.36 279.95 121.44 282.23 119 303.95 138.91 303.4"/><polygon class="cls-3" points="141.46 292.31 143.82 281.49 133.36 279.95 121.44 282.23 141.46 292.31"/><polygon class="cls-10" points="168.91 302.86 163 280.77 166.82 274.72 186.1 279.9 188.91 300.59 168.91 302.86"/><polygon class="cls-3" points="165.73 291.04 163 280.77 166.82 274.72 186.1 279.9 165.73 291.04"/><polygon class="cls-18" points="115.94 180.02 107.2 150.69 110.02 149.89 118.09 179.35 115.94 180.02"/><polygon class="cls-19" points="95.49 133.07 100.06 149.49 108.81 151.23 109.21 143.3 104.1 136.7 95.49 133.07"/><polygon class="cls-17" points="108.54 127.15 104.1 136.7 108.81 151.23 115.13 144.24 108.54 127.15"/><polygon class="cls-18" points="130.87 175.04 122.27 145.72 124.95 144.91 133.16 174.37 130.87 175.04"/><polygon class="cls-19" points="110.56 127.96 115.13 144.24 123.74 146.25 124.15 138.45 119.17 131.72 110.56 127.96"/><polygon class="cls-17" points="123.61 122.04 119.17 131.72 123.74 146.25 128.72 140.47 123.61 122.04"/><polygon class="cls-18" points="121.05 170.74 112.44 141.41 115.13 140.6 123.2 170.07 121.05 170.74"/><polygon class="cls-19" points="99.66 123.25 105.31 140.6 113.92 141.95 114.73 133.88 109.35 127.42 99.66 123.25"/><polygon class="cls-17" points="114.86 115.98 109.35 127.42 113.92 141.95 120.24 135.22 114.86 115.98"/><polygon class="cls-20" points="109.48 167.11 121.32 209.89 143.12 202.35 132.22 159.57 109.48 167.11"/><polygon class="cls-20" points="109.48 167.11 113.52 181.37 113.52 181.37 133.16 163.34 116.34 164.82 109.48 167.11"/><polygon class="cls-11" points="103.43 161.32 106.12 171.55 136.66 162.26 133.7 151.37 103.43 161.32"/><polygon class="cls-18" points="117.19 188.04 136.51 179.27 170.15 178.63 188.96 187 180.2 236.49 155.2 240.61 125.82 237.9 117.19 188.04"/><polygon class="cls-17" points="125.56 243.57 125.82 237.9 180.2 236.49 180.59 242.28 153.91 247.31 125.56 243.57"/><path class="cls-21" d="M121.44,282.23c.26-1,4.25-38.66,4.25-38.66l28.48-.64,26.54-.64-16,26.92Z"/><polygon class="cls-17" points="186.1 279.9 180.59 242.28 157.18 257.94 154.81 271.15 163 280.77 186.1 279.9"/><polygon class="cls-19" points="121.44 282.23 163 280.77 157.18 257.94 150.05 262.9 121.44 282.23"/><polygon class="cls-17" points="115.36 188.19 108.17 223.34 130.84 216.9 124.79 184.56 115.36 188.19"/><polygon class="cls-22" points="142.7 237.39 125.82 237.9 108.17 223.34 122.6 219.22 132.26 208.39 145.15 212.78 173.37 204.79 179.17 210.97 172.6 225.01 156.75 227.21 142.7 237.39"/><polygon class="cls-23" points="117.57 207.62 127.11 197.83 138.06 209.3 135.87 215.48 122.6 219.22 117.57 207.62"/><polygon class="cls-24" points="145.66 212.65 127.11 197.83 135.87 215.48 145.66 212.65"/><polygon class="cls-24" points="156.75 227.21 180.2 236.49 188.45 238.93 190.25 221.8 179.17 210.97 156.75 227.21"/><polygon class="cls-23" points="200.56 225.66 190.9 209.55 179.17 210.97 188.45 238.93 200.56 225.66"/><polygon class="cls-17" points="188.96 187 200.56 225.66 179.17 210.97 188.96 187"/><polygon class="cls-23" points="150.9 113.87 165.99 112.93 187.63 111.32 190.34 171.82 174.6 172.63 158.32 186.35 147.15 182.58 134.37 167.11 132.24 151.23 131.1 139.7 135.85 131.19 142.71 143.84 147.96 140.2 132.61 122.62 150.9 113.87"/><polygon class="cls-24" points="150.9 113.87 155.49 174.1 145.4 185.54 135.58 178.68 128.72 149.22 125.36 136.57 131.1 127.88 145.94 140.34 133.69 122.08 150.9 113.87"/><polygon class="cls-25" points="135.18 143.57 133.7 137.38 127.65 138.86 135.18 143.57"/><polygon class="cls-25" points="128.72 149.22 137.2 146.12 131.54 160.65 128.72 149.22"/><polygon class="cls-24" points="158.09 128.45 164.78 133.94 169.62 148.47 168.14 128.56 158.09 128.45"/><polygon class="cls-24" points="175.27 128.15 176.21 141.88 179.98 131.52 184.35 127.74 175.27 128.15"/><polygon class="cls-25" points="151.46 174.37 145.4 185.54 158.45 194.69 174.6 172.63 151.46 174.37"/><polygon class="cls-20" points="175 125.6 184.43 124.11 184.35 127.74 175.27 128.15 175 125.6"/><polygon class="cls-20" points="167.87 125.87 157.3 123.61 158.09 128.45 168.14 128.56 167.87 125.87"/><polygon class="cls-20" points="156.55 98.54 136.64 108.36 144.18 113.61 150.9 113.87 167.22 114.07 166.51 109.57 156.55 98.54"/><polygon class="cls-12" points="136.64 108.36 119.56 117.78 129.25 121.94 135.16 122.62 150.9 113.87 136.64 108.36"/><polygon class="cls-26" points="119.56 117.78 125.36 136.57 135.85 133.34 139.22 145.31 147.83 142.22 135.16 122.62 119.56 117.78"/><polygon class="cls-11" points="167.22 114.07 156.55 98.54 187.63 111.32 167.22 114.07"/><polygon class="cls-19" points="145.15 212.78 160.23 208.52 158.42 194.61 136.51 179.27 124.79 184.56 127.11 197.83 145.15 212.78"/><path class="cls-26" d="M165.43,134.71a2.46,2.46,0,1,1-2.93-1.86A2.45,2.45,0,0,1,165.43,134.71Z"/><path class="cls-26" d="M182.59,133.57a2.46,2.46,0,1,1-2.94-1.86A2.46,2.46,0,0,1,182.59,133.57Z"/><polygon class="cls-25" points="178.45 154.36 187.56 158.28 173.68 161.48 159.01 159.84 178.45 154.36"/><polygon class="cls-20" points="172.75 149.31 169.62 148.47 159.01 159.84 187.56 158.28 176.61 147.93 172.75 149.31"/><polygon class="cls-26" points="176.61 147.93 173.12 151.43 169.62 148.47 176.61 147.93"/><polygon class="cls-27" points="175.27 128.15 168.14 128.56 169.62 148.47 176.61 147.93 175.27 128.15"/></g><g id="character_2" data-name="character 2"><polygon class="cls-28" points="204.61 251.81 195.76 252.84 197.43 265.4 210.64 266.94 212.69 256.81 210.25 251.94 216.15 255.53 218.59 254.76 214.36 244.76 204.61 251.81"/><polygon class="cls-29" points="204.1 236.68 200.51 240.78 195.76 252.84 212.69 256.81 214.36 244.76 204.1 236.68"/><polygon class="cls-15" points="216.28 213.34 207.56 217.44 200.51 240.78 214.36 244.76 221.8 228.09 216.28 213.34"/><polygon class="cls-13" points="244.17 193.01 224.6 188.48 207.56 217.44 220.96 229.82 228.61 222.94 244.17 193.01"/><polygon class="cls-14" points="280.59 298.85 294.61 301.93 294.49 306.16 263.84 306.2 263.67 301.93 280.59 298.85"/><polygon class="cls-15" points="274.1 282.78 281.96 289.11 294.61 301.93 263.67 301.93 263.84 293.72 274.1 282.78"/><polygon class="cls-14" points="237.33 301.76 240.93 306.63 240.75 311.42 215.19 311.5 215 306.63 237.33 301.76"/><polygon class="cls-15" points="236.82 290.13 238.53 295.6 240.93 306.63 215 306.63 218.7 295.43 236.82 290.13"/><polygon class="cls-10" points="261.44 260.72 278.37 269.61 281.96 289.11 263.84 293.72 251.7 263.8 261.44 260.72"/><polygon class="cls-3" points="261.44 260.72 278.37 269.61 258.19 279.87 251.7 263.8 261.44 260.72"/><polygon class="cls-10" points="234.09 246.19 224.25 271.15 218.7 295.43 238.53 295.6 252.89 261.24 247.25 258.16 234.09 246.19"/><polygon class="cls-3" points="234.09 246.19 224.25 271.15 245.2 279.83 252.89 261.24 247.25 258.16 234.09 246.19"/><polygon class="cls-14" points="244.51 247.3 274.78 240.38 278.37 269.61 224.25 271.15 238.14 254.8 244.51 247.3"/><polygon class="cls-13" points="255.46 226.87 274.78 240.38 224.25 271.15 230.15 240.12 255.46 226.87"/><polygon class="cls-14" points="263.67 221.74 275.81 233.71 274.78 240.38 230.15 240.12 229.64 234.22 263.67 221.74"/><polygon class="cls-30" points="320.3 135.36 324.54 132.83 329.67 116.76 315.64 111.11 311.28 118.72 306.85 125.72 320.3 135.36"/><polygon class="cls-31" points="306.85 125.72 324.54 132.83 316.5 146.59 307.39 144.86 306.85 125.72"/><polygon class="cls-28" points="306.5 150.18 302.65 138.9 302.14 130.35 305.81 117.44 311.28 118.72 310.31 129.66 313.68 139.92 306.5 150.18"/><polygon class="cls-15" points="279.05 180.7 305.73 179.51 316.5 146.59 302.65 140.18 279.05 180.7"/><polygon class="cls-13" points="270.85 216.35 284.18 206.86 305.73 179.51 282.64 157.36 264.44 184.29 270.85 216.35"/><polygon class="cls-13" points="241.1 208.66 227.76 216.44 229.64 234.22 275.81 233.71 284.18 206.86 241.1 208.66"/><polygon class="cls-15" points="246.22 174.89 239.22 182.07 224.6 188.48 228.61 222.94 284.18 206.86 282.9 177.11 266.74 179.16 246.22 174.89"/><polygon class="cls-28" points="238.21 169.52 243.39 184.53 256.67 184.87 268.7 188.25 275.04 183.37 278.85 179.34 292.49 178.78 296.28 118.08 245.85 117.81 238.21 169.52"/><polygon class="cls-30" points="256.53 139.04 265.86 144.58 272.62 156.34 280.19 156.2 284.92 144.58 294.38 137.96 280.19 138.23 278.43 139.31 272.35 139.58 268.97 138.77 256.53 139.04"/><polygon class="cls-30" points="238.21 169.52 239.22 182.07 251.48 191.6 254.23 179.59 252.88 127.01 245.85 117.81 238.21 169.52"/><polygon class="cls-31" points="275.61 183.56 292.49 178.78 254.23 179.59 248.56 180.54 251.48 191.6 264.69 199.94 275.61 183.56"/><polygon class="cls-31" points="238.21 169.52 242.67 157.04 235.29 160.73 238.21 169.52"/><polygon class="cls-26" points="276.95 126.74 294.65 117.27 302.14 100.17 244.23 119.3 226.01 132.53 231.15 148.38 242.12 150.57 248.02 149.61 252.88 127.01 276.95 126.74"/><polygon class="cls-20" points="302.14 100.17 232.46 110.6 239.9 123.9 252.88 127.01 302.14 100.17"/><polygon class="cls-28" points="241.29 143.78 231.15 148.38 235.45 161.02 246.8 156.02 241.29 143.78"/><polygon class="cls-31" points="237.91 148.92 234.39 150.41 240.81 154.93 237.91 148.92"/><polygon class="cls-11" points="295.47 130.26 302.14 100.17 276.95 126.74 295.47 130.26"/><polygon class="cls-12" points="226.01 132.53 252.88 127.01 245.45 120.38 232.46 110.6 226.01 132.53"/><polygon class="cls-20" points="256.53 139.04 263.56 134.71 268.97 138.77 256.53 139.04"/><polygon class="cls-20" points="280.19 138.23 288.03 132.82 294.38 137.96 280.19 138.23"/><polygon class="cls-32" points="272.35 139.58 278.43 139.31 280.19 156.2 272.62 156.34 272.35 139.58"/><polygon class="cls-31" points="276.81 160.13 272.62 156.34 280.19 156.2 276.81 160.13"/><polygon class="cls-31" points="264.24 163.64 288.44 163.24 283.98 173.65 268.43 173.65 264.24 163.64"/><polygon class="cls-6" points="266.4 165.13 284.65 165.13 283.43 168.37 268.43 168.78 266.4 165.13"/><path d="M268.89,145.43a2.84,2.84,0,1,1-2.84-2.83A2.84,2.84,0,0,1,268.89,145.43Z"/><path d="M287.44,145.05a2.84,2.84,0,1,1-2.84-2.83A2.84,2.84,0,0,1,287.44,145.05Z"/></g><g id="character_3" data-name="character 3"><polygon class="cls-19" points="616.03 304.47 598.47 305.88 598.34 310.37 634.5 310.75 634.53 306.71 616.03 304.47"/><polygon class="cls-18" points="623.73 284.98 615.78 293.18 598.47 305.88 634.53 306.71 635.78 298.57 623.73 284.98"/><polygon class="cls-19" points="681.18 309.51 692.98 313.44 693.15 317.12 669 316.91 668.91 313.4 681.18 309.51"/><polygon class="cls-18" points="680.92 291.39 671.69 301.9 668.91 313.4 692.98 313.44 690.67 300.37 680.92 291.39"/><polygon class="cls-33" points="714.81 247.96 719.58 249.5 720.49 260.7 711.19 263.16 706.58 255.64 706.34 248.42 701.32 253.79 698.6 251.72 701.86 243.99 714.81 247.96"/><polygon class="cls-34" points="708.64 237.6 714.08 239.91 719.58 249.5 706.58 255.64 701.86 243.99 708.64 237.6"/><polygon class="cls-34" points="661.11 122.65 645.29 113.38 638.58 114.7 635.82 123.03 635.94 131.3 630.18 168.36 647.21 172.11 667.24 172.99 676.01 137.93 677.51 121.53 663.62 120.15 661.11 122.65"/><polygon class="cls-33" points="671.29 133.73 661.15 137.36 653.51 149.14 654.38 140.99 655.63 135.11 660.15 132.6 671.29 133.73"/><polygon class="cls-33" points="647.69 131.2 650.25 134.86 650.88 138.99 647.5 148.29 645.99 136.36 637.33 131.01 643.87 130.32 647.69 131.2"/><polygon class="cls-20" points="660.56 128.25 671.84 130.95 671.29 133.73 660.15 132.6 660.56 128.25"/><polygon class="cls-20" points="647.82 131.16 648.25 127.31 637.73 128.51 637.33 131.01 647.82 131.16"/><polygon class="cls-35" points="650.25 134.86 647.5 148.29 650.13 149.56 653.51 149.14 655.63 135.07 650.25 134.86"/><polygon class="cls-33" points="677.51 121.53 686.03 131.3 683.9 139.19 678.52 148.95 681.02 149.58 682.65 152.21 685.52 149.96 687.91 144.57 690.66 148.7 694.04 150.46 689.28 154.71 687.15 159.6 685.9 162.72 676.38 191.15 651.47 183.64 651.22 176.87 630.18 168.36 667.24 172.99 673.76 136.43 677.51 121.53"/><polygon class="cls-33" points="682.65 152.21 681.39 155.21 687.15 159.6 694.04 150.46 687.91 144.57 682.65 152.21"/><polygon class="cls-20" points="635.82 131.93 632.09 113.6 634.82 114.39 638.49 115.23 635.82 131.93"/><polygon class="cls-12" points="661.11 122.65 632.09 113.6 647.99 98.89 661.86 111.64 661.11 122.65"/><polygon class="cls-11" points="661.11 122.65 662.74 109.39 688.8 105.12 700.18 117.8 688.66 122.16 677.51 121.53 661.11 122.65"/><polygon class="cls-12" points="700.18 117.8 699.8 149.38 689.2 141.29 686.03 131.3 677.51 121.53 700.18 117.8"/><polygon class="cls-20" points="686.03 131.3 678.52 148.95 682.65 152.21 687.91 144.57 694.04 150.46 699.8 149.38 686.03 131.3"/><polygon class="cls-36" points="690.78 150.96 688.53 148.82 685.9 153.46 690.78 150.96"/><polygon class="cls-36" points="687.15 159.6 683.02 156.47 683.65 169.74 687.15 159.6"/><polygon class="cls-36" points="647.5 148.29 650.5 151.67 653.51 149.14 647.5 148.29"/><polygon class="cls-33" points="673.58 174.29 676.48 192.22 652.13 183.98 673.58 174.29"/><polygon class="cls-14" points="629.65 201.48 640.42 197.37 652.25 205.67 661.22 220.45 652.29 238.68 643.57 240.98 634.24 240.14 628.06 230.93 629.65 201.48"/><polygon class="cls-13" points="680.72 207.24 679.58 236.19 651.08 245.47 652.25 205.67 680.72 207.24"/><polygon class="cls-15" points="636.43 176.98 683.63 185.92 684.72 193.19 681.57 213.3 679.39 216.21 652.25 205.67 629.65 201.48 626.32 189.42 636.43 176.98"/><polygon class="cls-13" points="706.08 212.89 683.63 185.92 679.39 216.21 687.62 222.51 699.67 226.1 706.08 212.89"/><polygon class="cls-14" points="714.08 239.91 706.08 212.89 687.62 222.51 701.98 244.72 714.08 239.91"/><polygon class="cls-10" points="690.67 300.37 687.01 281.06 676.83 273.06 662.9 276.69 671.69 301.9 690.67 300.37"/><polygon class="cls-3" points="687.01 281.06 676.83 273.06 662.9 276.69 666.71 287.4 687.01 281.06"/><polygon class="cls-10" points="615.78 293.18 620.37 270.51 630.84 258.92 645.09 271.73 635.78 298.57 615.78 293.18"/><polygon class="cls-3" points="620.37 270.51 630.84 258.92 645.09 271.73 640.42 285.09 620.37 270.51"/><polygon class="cls-33" points="667.29 189.49 655.62 175.19 678.38 184.87 667.29 189.49"/><polygon class="cls-36" points="673.63 173.62 630.18 168.36 645.21 174.42 655.41 194.3 667.14 189.33 673.63 173.62"/><polygon class="cls-14" points="626.24 240.98 628.06 230.93 679.58 236.19 679.55 246.32 652.17 253.95 626.24 240.98"/><polygon class="cls-15" points="620.37 270.51 655.2 253.1 662.35 271.04 662.9 276.69 620.37 270.51"/><polygon class="cls-13" points="679.55 246.32 687.01 281.06 662.9 276.69 651.4 257.69 679.55 246.32"/><polygon class="cls-14" points="620.37 270.51 626.24 240.98 679.55 246.32 620.37 270.51"/><polygon class="cls-36" points="640.22 152.94 662.26 155.08 655.17 163.35 644.37 162.29 640.22 152.94"/><polygon class="cls-6" points="642.51 154.41 644.17 158.12 656 159.46 658.81 156.27 642.51 154.41"/><polygon class="cls-20" points="688.8 105.12 647.99 98.89 661.11 122.65 688.8 105.12"/><polygon class="cls-13" points="604.2 176.86 629.65 201.48 636.43 176.98 621.64 163.53 609.65 160.53 604.2 176.86"/><polygon class="cls-14" points="604.39 136 604.2 176.86 621.53 163.86 617.12 135.64 604.39 136"/><polygon class="cls-37" points="596.28 134.42 648.62 85.83 652.5 90.07 600.15 138.66 596.28 134.42"/><path class="cls-2" d="M600.4,143a6.52,6.52,0,1,0-9.21-.36A6.51,6.51,0,0,0,600.4,143Z"/><polygon class="cls-37" points="661.1 65.23 671.28 68.39 667.76 79.41 617.72 124.61 608.15 114.31 661.1 65.23"/><polygon class="cls-38" points="620.75 128 614.57 121.33 671.28 68.39 673.7 78.93 620.75 128"/><polygon class="cls-2" points="628.39 133.94 602.82 106.31 600.52 108.37 626.08 136 628.39 133.94"/><polygon class="cls-2" points="618.33 125.33 618.69 117.58 610.82 117.21 610.57 125.09 618.33 125.33"/><polygon class="cls-34" points="594.82 127.03 607.18 115.64 616.15 125.33 604.39 136 594.82 127.03"/><polygon class="cls-33" points="617.12 135.64 616.15 125.33 604.39 136 617.12 135.64"/><polygon class="cls-20" points="709.31 173.25 694.04 150.46 687.15 159.6 695.67 188.14 709.31 173.25"/><polygon class="cls-12" points="698.42 156.97 694.04 150.46 687.15 159.6 689.53 167.73 689.53 167.73 698.42 156.97"/><circle cx="643.84" cy="137.14" r="2.48"/><path d="M664.34,139a2.49,2.49,0,1,1-2.48-2.48A2.49,2.49,0,0,1,664.34,139Z"/></g><g id="rock"><polygon class="cls-12" points="407.58 306.41 405.19 317.78 371.33 306.5 373.73 291.28 407.58 306.41"/><polygon class="cls-10" points="388.09 280.51 373.73 291.28 405.19 317.78 459.39 321.03 459.39 282.56 388.09 280.51"/><polygon class="cls-10" points="488.11 288.72 528.63 317.44 539.92 305.64 525.88 260.52 488.11 288.72"/><polygon class="cls-12" points="475.8 294.36 459.39 321.03 528.63 317.44 504.01 283.59 475.8 294.36"/><polygon class="cls-9" points="428.1 257.43 425.02 295.38 459.39 321.03 504.01 283.59 428.1 257.43"/><polygon class="cls-11" points="431.18 263.58 378.6 263.2 373.73 291.28 425.02 295.38 447.25 268.97 431.18 263.58"/><polygon class="cls-38" points="445.54 241.27 402.96 250.25 378.6 263.2 447.25 268.97 504.01 283.59 525.88 260.52 445.54 241.27"/></g><polygon class="cls-24" points="534.91 65.59 539.55 61.53 540.72 46.18 526.71 41.18 519.31 53.99 526.51 66.39 534.91 65.59"/><polygon class="cls-25" points="519.51 56.19 539.55 61.53 532.71 78 520.51 79.2 519.51 56.19"/><polygon class="cls-23" points="519.11 88.21 517.91 70.6 515.71 60.79 518.91 48.19 523.51 50.59 522.31 59.99 526.31 68.19 520.11 88.81 519.11 88.21"/><polygon class="cls-39" points="498.54 99.34 518.79 113.28 520.1 129.85 506.25 154.46 413.15 137.53 413.92 108.97 424.02 102.85 498.54 99.34"/><polygon class="cls-40" points="424.02 102.85 498.54 99.34 518.79 113.28 520.1 129.85 508.47 121.84 422.2 114.68 413.92 108.97 424.02 102.85"/><polygon class="cls-17" points="423.96 237.78 416.05 219.47 416.15 137.53 431.76 139.63 456.87 141.14 501.9 139.23 517.89 252.89 502.72 266.1 432.95 253.49 406.85 247.69 423.96 237.78"/><polygon class="cls-19" points="497.3 150.84 506.7 130.03 525.08 259.71 515.49 256.76 510.32 247.42 497.3 150.84"/><polygon class="cls-18" points="502.72 266.1 525.08 259.71 510.32 247.42 502.72 266.1"/><polygon class="cls-17" points="446.87 223.48 447.27 234.68 461.48 242.09 473.88 212.07 452.77 203.47 446.87 223.48"/><polygon class="cls-25" points="375.92 149 370.32 153.04 362.07 151.03 364.96 136.43 375.92 149"/><rect class="cls-41" x="309.57" y="88.69" width="135.51" height="6.6" transform="translate(184.25 428.98) rotate(-73.89)"/><path class="cls-1" d="M364.32,159.19a6.15,6.15,0,1,0-7.61,4.2A6.15,6.15,0,0,0,364.32,159.19Z"/><polygon class="cls-41" points="386.37 21.63 397.9 19.88 401.13 31.7 373.06 118.67 359.5 114.67 386.37 21.63"/><polygon class="cls-38" points="379.85 120.55 369.91 117.67 397.9 19.88 406.72 27.5 379.85 120.55"/><polygon class="cls-1" points="391.84 118.02 395.88 126.76 388.07 131.07 383.98 123.67 373.75 120.72 368.13 123.81 365.04 118.2 355.73 115.51 348.33 119.6 343.09 111.52 352.1 106.55 354.35 111.41 366.02 114.78 371.64 111.69 374.73 117.3 387.34 120.94 391.84 118.02"/><polygon class="cls-24" points="359.9 127.48 368.99 134.67 364.64 151.66 352.82 149.18 359.9 127.48"/><polygon class="cls-23" points="380.54 144.57 374.88 136.89 370.22 128.49 359.5 134.7 361.83 138.02 366.98 136.31 367.29 143.5 375.29 148.29 380.54 144.57"/><polygon class="cls-15" points="415.75 153.24 401.14 141.43 374.88 136.89 370.32 153.04 407.75 167.55 415.75 153.24"/><polygon class="cls-13" points="416.02 218.97 435.55 226.92 432.65 241.28 422.61 241.28 416.02 235.58 416.02 218.97"/><polygon class="cls-15" points="416.02 235.58 403.54 247.96 415.6 250.69 432.95 247.96 432.65 241.28 416.02 235.58"/><polygon class="cls-13" points="403.54 253.49 432.95 253.49 432.95 247.96 408.14 247.96 398.39 244.29 403.54 253.49"/><polygon class="cls-14" points="416.02 218.97 433.92 234.26 435.55 226.92 425.79 218.97 416.02 218.97"/><polygon class="cls-13" points="474.46 243.28 477.52 255.49 487.58 256.69 496.6 252.89 495.06 238.75 474.46 243.28"/><polygon class="cls-15" points="496.6 252.89 502.72 266.1 477.11 266.1 477.52 255.49 496.6 252.89"/><polygon class="cls-13" points="477.11 270.7 502.72 270.7 502.72 266.1 489.91 262.17 477.11 266.1 477.11 270.7"/><polygon class="cls-14" points="495.06 238.75 476.06 249.67 474.46 243.28 480.77 237.68 495.06 238.75"/><polygon class="cls-19" points="459.75 188.07 462.68 207.87 447.27 234.68 416.05 219.47 429.31 189.28 440.98 184.09 459.75 188.07"/><polygon class="cls-18" points="490.86 199 495.06 238.75 461.48 242.09 459.75 188.07 490.86 199"/><polygon class="cls-19" points="429.31 128.53 422.2 114.68 401.14 141.43 407.75 167.55 429.06 149.84 429.31 128.53"/><polygon class="cls-19" points="492.63 116.09 469.47 128.23 448.45 144.44 459.75 188.07 490.12 188.07 490.39 177.95 497.3 150.84 492.63 116.09"/><polygon class="cls-18" points="456.87 141.14 459.75 185.03 459.75 188.07 429.31 188.07 429.23 173.81 422.2 114.68 437.05 113.28 437.58 119.46 437.58 119.46 443.89 119.16 447.21 133.43 456.87 141.14"/><polygon class="cls-42" points="490.12 188.07 429.21 181.96 428.31 191.26 490.86 199 490.12 188.07"/><polygon class="cls-21" points="525.31 117.02 512.3 101.01 490.28 114.73 485.1 113.97 490.91 134.71 497.3 150.84 525.31 117.02"/><polygon class="cls-14" points="457.14 135.6 448.75 126.9 443.89 119.16 435.05 120.45 435.82 133.51 456.87 141.14 461.86 136.67 457.14 135.6"/><polygon class="cls-15" points="457.14 135.6 456.87 141.14 490.91 134.71 493.29 113.22 485.04 111.72 476.57 123.23 457.14 135.6"/><polygon class="cls-26" points="487.14 112.47 489.32 81.77 493.39 73.31 501.1 76.86 501.75 107.77 493.29 113.22 487.14 112.47"/><polygon class="cls-26" points="424.52 72.87 422.2 114.68 434.46 113.61 436.42 68.78 424.52 72.87"/><polygon class="cls-23" points="435.05 120.45 474.46 118.59 485.62 110.62 490.91 50.1 429.3 47.45 435.05 120.45"/><polygon class="cls-24" points="440.98 120.17 481.3 114.87 486.15 56 493.39 44.47 487.06 118.16 485.62 127.33 457.14 135.6 442.32 128.32 440.98 120.17"/><polygon class="cls-25" points="463.26 95.59 457.48 99.54 451.69 95.59 463.26 95.59"/><polygon class="cls-24" points="481.33 80.42 469.24 84.13 463.26 95.59 459.85 77.08 477.06 75.52 481.33 80.42"/><polygon class="cls-24" points="451.69 95.59 443.1 84.13 433.62 80.42 437.88 77.73 445.71 76.86 455.1 77.08 455.1 88.55 451.69 95.59"/><polygon class="cls-27" points="451.69 95.59 457.48 97.04 463.26 95.59 459.85 77.08 455.1 77.08 451.69 95.59"/><polygon class="cls-20" points="455.1 77.08 437.88 77.73 433.62 80.42 437.88 73.31 455.1 77.08"/><polygon class="cls-20" points="459.85 77.08 477.06 77.73 481.33 80.42 477.06 73.31 459.85 77.08"/><polygon class="cls-25" points="455.51 130.93 440.98 120.17 487.06 118.16 455.51 130.93"/><polygon class="cls-10" points="501.1 76.86 499.88 46.18 487.06 42.98 477 35.32 442.64 35.32 435.05 44.47 421.93 50.1 424.52 72.87 431.4 74.06 429.81 52.69 456.4 61.39 485.16 48.44 490.02 85.55 501.1 76.86"/><polygon class="cls-7" points="456.4 61.39 477 35.32 499.88 46.18 486.15 56 456.4 61.39"/><polygon class="cls-24" points="482.52 100.1 433.67 102.93 435.05 120.45 481.33 118.41 482.52 100.1"/><polygon class="cls-20" points="442.64 35.32 456.4 61.39 430.04 55.8 421.93 50.1 442.64 35.32"/><polygon class="cls-43" points="482.52 100.1 488.83 97.56 487.06 118.16 481.33 118.41 482.52 100.1"/><circle class="cls-26" cx="445.71" cy="84.13" r="2.93"/><path class="cls-26" d="M469,84.13A2.93,2.93,0,1,0,472,81.2,2.93,2.93,0,0,0,469,84.13Z"/><polygon class="cls-25" points="446.39 104.44 470.18 103.09 465.38 114.27 452.25 114.94 446.39 104.44"/><polygon class="cls-6" points="449.55 105.86 467.37 104.85 465.45 109.43 451.8 110.22 449.55 105.86"/><polygon class="cls-15" points="517.91 70.6 506.35 104.66 525.31 117.02 532.71 78 517.91 70.6"/></svg>