<svg fill="none" height="91" viewBox="0 0 307 91" width="307" xmlns="http://www.w3.org/2000/svg" xmlns:xlink="http://www.w3.org/1999/xlink"><linearGradient id="a" gradientUnits="userSpaceOnUse" x1="79.8242" x2="79.8242" y1="84.5913" y2="49"><stop offset="0" stop-color="#0052cc"/><stop offset="1" stop-color="#2684ff"/></linearGradient><path clip-rule="evenodd" d="m93.3863 49h-27.1527c-1.1219 0-2.1978.4452-2.9916 1.238-.7938.7927-1.2405 1.868-1.242 2.9898v27.1128c-.0022.5574.1056 1.1098.3174 1.6254.2117.5156.5232.9843.9165 1.3793.3934.3949.8608.7083 1.3756.9221.5147.2138 1.0667.3239 1.6241.3239h27.1527c.5569-.0008 1.1082-.1114 1.6223-.3256.5141-.2141.9809-.5276 1.3736-.9225.3928-.3948.7037-.8633.9151-1.3785.2114-.5153.3191-1.0672.3168-1.6241v-27.1128c-.0015-1.1208-.4474-2.1953-1.2399-2.9878-.7926-.7926-1.8671-1.2385-2.9879-1.24zm-16.0269 25.6351c-.0007.1863-.0383.3706-.1104.5424-.0722.1717-.1776.3275-.3101.4585-.1325.1309-.2896.2344-.4622.3045-.1726.07-.3574.1053-.5437.1038h-5.9338c-.3727-.0015-.7297-.1506-.9928-.4147-.2631-.2642-.4107-.6218-.4107-.9945v-17.6587c0-.3728.1476-.7304.4107-.9945.2631-.2642.6201-.4133.9928-.4148h5.9338c.3733.0015.7309.1505.9949.4144.2639.264.4129.6216.4144.9949zm13.6933-8.1076c0 .1865-.037.3712-.1089.5433-.0718.1721-.1772.3282-.3099.4593-.1326.1311-.29.2345-.463.3043s-.3581.1046-.5446.1023h-5.9337c-.3733-.0015-.7309-.1504-.9949-.4144-.2639-.2639-.4129-.6215-.4144-.9948v-9.5511c.0015-.3733.1505-.7309.4144-.9949.264-.2639.6216-.4129.9949-.4144h5.9337c.3728.0015.7298.1506.9929.4148.263.2641.4107.6217.4107.9945z" fill="url(#a)" fill-rule="evenodd"/><g fill="#293856"><path d="m135.796 51.6075v6.8809h-8.153v26.1029h-7.863v-26.1029h-8.153v-6.8809z"/><path d="m145.803 84.5913h-7.269v-25.675h7.269v4.9182c1.381-3.4633 3.589-5.523 7.52-5.272v7.6055c-5.135-.3993-7.52.8559-7.52 4.9696z"/><path d="m193.034 84.791c-4.764 0-7.76-2.2823-7.76-7.6797v-28.1113h7.321v27.1071c0 1.5576 1.027 2.1111 2.282 2.1111.362.0073.724-.0099 1.084-.0514v6.3275c-.957.2332-1.942.333-2.927.2967z"/><path d="m208.302 84.791c-4.764 0-7.765-2.2823-7.765-7.6797v-28.1113h7.32v27.1071c0 1.5576 1.033 2.1111 2.311 2.1111.36.0074.72-.0097 1.078-.0514v6.3275c-.963.2354-1.954.3353-2.944.2967z"/><path d="m214.755 71.7424c0-7.9307 4.564-13.3567 12.427-13.3567 7.862 0 12.329 5.4088 12.329 13.3567 0 7.9478-4.519 13.4537-12.329 13.4537-7.811 0-12.427-5.5743-12.427-13.4537zm7.126 0c0 3.8627 1.621 6.9265 5.301 6.9265s5.209-3.0638 5.209-6.9265-1.569-6.8467-5.209-6.8467c-3.641 0-5.301 2.9783-5.301 6.8467z"/><path d="m163.137 74.0645c2.035.2236 4.08.3436 6.128.3594 5.568 0 10.27-1.4948 10.27-6.8866 0-5.232-4.833-9.1631-10.647-9.1631-7.828 0-12.843 5.677-12.843 13.6078 0 8.2331 4.325 13.1227 14.098 13.1227 2.9.0236 5.779-.491 8.49-1.5176v-6.1506c-2.51.8045-5.334 1.6032-8.233 1.6032-3.891 0-6.601-1.278-7.263-4.9752zm5.603-10.0874c2.059 0 3.714 1.3978 3.714 3.3092 0 2.4591-2.596 3.2293-5.586 3.2293-1.272-.0058-2.542-.1069-3.8-.3024.095-1.1989.439-2.3648 1.01-3.4233.458-.8389 1.132-1.5407 1.951-2.033.819-.4924 1.755-.7576 2.711-.7684z"/></g><path d="m52.8117 27.6124c1.3705 0 2.6893-.1551 4.215-.4654l1.4223 3.853h2.6117l-6.6975-16.9895h-2.9479l-6.6975 16.9895h2.6117l1.4223-3.8272c1.4481.2845 2.7669.4396 4.0599.4396zm0-2.0687c-1.0344 0-2.0946-.1034-3.3617-.3103l3.4392-9.3352 3.4393 9.3093c-1.3188.2069-2.4307.3362-3.5168.3362zm24.388-1.0085c0 2.9997-1.293 4.6547-3.8013 4.6547-1.8877 0-3.5169-1.2671-3.5169-4.1375v-1.0344c0-2.8703 1.7843-4.1374 3.7755-4.1374 2.3015 0 3.5427 1.5515 3.5427 4.6546zm-3.2065 6.7234c3.6202 0 5.4304-3.0772 5.4304-6.7234 0-3.8013-1.7326-6.7234-5.1719-6.7234-1.9911 0-3.5427.8792-4.3702 2.5859v-7.7318h-2.2238v18.3341h2.2238v-2.2756c.7758 1.6808 2.2239 2.5342 4.1117 2.5342zm12.999-.2845v-1.9911c-.2586.0258-.4137.0258-.6464.0258-.9568 0-1.7326-.4137-1.7326-1.5774v-14.7655h-2.2239v15.0241c0 2.3791 1.3447 3.3876 3.4651 3.3876.5689 0 .9568-.0517 1.1378-.1035zm7.78.2845c3.853 0 6.1028-2.8704 6.1028-6.7493 0-3.8788-2.2498-6.6975-6.1028-6.6975-3.8789 0-6.1545 2.8187-6.1545 6.6975 0 3.8789 2.2756 6.7493 6.1545 6.7493zm0-11.378c2.7411 0 3.9306 2.1721 3.9306 4.6287 0 2.4567-1.1895 4.6806-3.9306 4.6806-2.7669 0-3.9823-2.2239-3.9823-4.6806 0-2.4566 1.2154-4.6287 3.9823-4.6287zm17.7898 10.085c0 2.4049-1.112 4.1375-4.344 4.1375-1.604 0-3.078-.3103-4.5-.7758v2.1722c1.241.4137 2.431.6982 4.603.6982 4.629 0 6.413-2.5601 6.413-6.3614v-11.7659h-2.172v2.2756c-.776-1.6808-2.224-2.5342-4.112-2.5342-3.594 0-5.378 3.0773-5.378 6.7234 0 3.8013 1.706 6.7234 5.12 6.7234 1.991 0 3.542-.8792 4.37-2.5859zm-7.318-5.4304c0-2.9997 1.293-4.6546 3.801-4.6546 1.888 0 3.517 1.2671 3.517 4.1374v1.0344c0 2.8704-1.784 4.1375-3.776 4.1375-2.301 0-3.542-1.5516-3.542-4.6547zm20.967-7.8353c0-1.1637.672-1.9653 2.043-1.9653.517 0 1.008.0517 1.396.1293v-2.0429c-.388-.1034-.827-.2069-1.5-.2069-2.767 0-4.111 1.6292-4.111 4.0341v1.4222h-2.095v2.0688h2.095v10.8608h2.172v-10.8608h3.336v-2.0688h-3.336zm10.998 14.5587c3.853 0 6.102-2.8704 6.102-6.7493 0-3.8788-2.249-6.6975-6.102-6.6975-3.879 0-6.155 2.8187-6.155 6.6975 0 3.8789 2.276 6.7493 6.155 6.7493zm0-11.378c2.741 0 3.93 2.1721 3.93 4.6287 0 2.4567-1.189 4.6806-3.93 4.6806-2.767 0-3.983-2.2239-3.983-4.6806 0-2.4566 1.216-4.6287 3.983-4.6287zm11.247 3.4909c0-2.741 1.732-3.5944 4.577-3.3099v-2.1722c-2.534-.1552-3.827.9309-4.577 2.4566v-2.2756h-2.172v12.9296h2.172zm14.61 3.6203v-6.8526h3.44v-2.0688h-3.44v-2.7411h-2.172v2.7411h-2.095v2.0688h2.095v6.9043c0 2.405 1.345 4.0341 4.112 4.0341.672 0 1.112-.1035 1.5-.2069v-2.1463c-.388.0776-.88.181-1.397.181-1.37 0-2.043-.7758-2.043-1.9136zm11.398-7.163c2.224 0 3.31 1.3706 3.44 3.7755h-7.215c.233-2.2498 1.422-3.7755 3.775-3.7755zm4.965 10.654v-2.0429c-1.163.4138-2.43.6982-3.93.6982-3.052 0-4.474-1.4222-4.784-3.6202h9.438v-1.0086c0-3.9305-1.603-6.6975-5.585-6.6975-3.931 0-6.103 2.7928-6.103 6.6975 0 3.9565 2.12 6.7493 6.956 6.7493 1.319 0 2.948-.2069 4.008-.7758zm5.209-5.9476c0-2.9997 1.293-4.6546 3.801-4.6546 1.888 0 3.517 1.2671 3.517 4.1374v1.0344c0 2.8704-1.784 4.1375-3.776 4.1375-2.301 0-3.542-1.5516-3.542-4.6547zm7.318 6.4648h2.224v-12.9296h-2.224v2.2756c-.776-1.6808-2.224-2.5342-4.112-2.5342-3.62 0-5.43 3.0773-5.43 6.7234 0 3.8013 1.732 6.7234 5.172 6.7234 1.991 0 3.542-.8792 4.37-2.5859zm16.955-7.1888c0-2.6118 1.423-3.9824 3.491-3.9824 2.121 0 3.052 1.3189 3.052 3.9824v7.1888h2.224v-7.5767c0-3.6462-1.604-5.6115-4.5-5.6115-2.146 0-3.879 1.1637-4.603 3.1548-.646-2.0428-2.146-3.1548-4.344-3.1548-1.733 0-3.258.8534-4.086 2.3791v-2.1205h-2.224v12.9296h2.224v-7.1888c0-2.6118 1.422-3.9824 3.491-3.9824 2.121 0 3.051 1.0344 3.051 3.3617v7.8095h2.224zm21.174 3.672c0-2.2498-1.449-3.31-4.319-4.0082-2.379-.5689-3-1.1378-3-2.0429 0-1.0085.88-1.5774 2.509-1.5774 1.37 0 2.637.4137 4.189 1.1895v-2.3014c-.957-.5172-2.483-.931-4.163-.931-2.948 0-4.681 1.3706-4.681 3.6203 0 2.1205 1.215 3.2324 4.086 3.9306 2.456.5948 3.206 1.1637 3.206 2.1463 0 1.0085-.879 1.7067-2.586 1.7067-1.629 0-3.491-.6206-4.602-1.2671v2.3532c.982.5172 2.56.9568 4.499.9568 3.465 0 4.862-1.6291 4.862-3.7754zm17.154-2.948c0 2.9997-1.293 4.6547-3.801 4.6547-1.888 0-3.517-1.2671-3.517-4.1375v-1.0344c0-2.8703 1.784-4.1374 3.775-4.1374 2.302 0 3.543 1.5515 3.543 4.6546zm-3.207 6.7234c3.621 0 5.431-3.0772 5.431-6.7234 0-3.8013-1.733-6.7234-5.172-6.7234-1.991 0-3.543.8792-4.37 2.5859v-7.7318h-2.224v18.3341h2.224v-2.2756c.775 1.6808 2.224 2.5342 4.111 2.5342zm12.572-1.0861c-1.06 2.8187-1.862 4.0599-3.672 4.0599-.647 0-1.5-.0776-2.25-.3103v1.9136c.647.2586 1.267.362 2.379.362 3.284 0 4.112-1.9136 5.56-5.6114l4.887-12.5159h-2.379l-4.137 11.0677-4.138-11.0677h-2.379l4.681 12.1021z" fill="#172b4d"/></svg>