<svg height="31" viewBox="0 0 250 31" width="250" xmlns="http://www.w3.org/2000/svg"><g fill="none" fill-rule="evenodd" transform="translate(-1 -1)"><path d="m21.438 3.892c-.803-.446-3.106-.17-5.872.686-4.841 3.309-8.927 8.184-9.212 16.012-.052.187-.529-.025-.624-.083-1.307-2.506-1.825-5.144-.733-8.95.203-.339-.462-.756-.582-.637-.239.24-1.238 1.304-1.901 2.455-3.288 5.704-1.138 13.013 4.615 16.211 5.751 3.203 13.014 1.137 16.216-4.616 3.705-6.64.265-19.864-1.907-21.078" fill="#7aac41"/><g fill="#fff"><path d="m42.026 7.079c-6.82 0-11.77 5.07-11.77 12.054 0 7.043 4.937 11.961 12.007 11.961 3.571 0 6.398-1.116 8.647-3.415.671-.725.744-1.424.744-1.691 0-1.139-.847-1.966-2.014-1.966-.588 0-1.08.222-1.644.744-1.273 1.186-2.95 2.398-5.733 2.398-3.87 0-7.017-2.905-7.215-6.636h15.402c1.674 0 2.488-.783 2.488-2.394 0-.474 0-.816-.095-1.491-.83-5.989-4.873-9.564-10.817-9.564zm0 3.739c3.698 0 6.07 2.357 6.217 6.161h-13.19c.346-3.521 3.322-6.161 6.973-6.161z"/><path d="m67.646 7.079c-3.098 0-6.165 1.781-7.363 4.255v-1.528c0-2.369-1.836-2.489-2.204-2.489-1.087 0-2.25.654-2.25 2.489v18.466c0 2.46 1.954 2.584 2.346 2.584.391 0 2.346-.124 2.346-2.584v-9.899c0-4.308 2.441-7.316 5.935-7.316 3.385 0 5.031 2.221 5.031 6.791v10.424c0 2.46 1.955 2.584 2.347 2.584.391 0 2.345-.124 2.345-2.584v-11.899c0-4.493-2.242-9.294-8.533-9.294"/><path d="m97.408 7.317c-1.084 0-1.871.633-2.339 1.877l-6.419 16.142-6.37-16.142c-.499-1.263-1.279-1.877-2.387-1.877-1.293 0-2.346 1.009-2.346 2.25 0 .308.035.706.294 1.328l7.377 17.419c.88 2.101 2.326 2.542 3.384 2.542s2.505-.441 3.386-2.541l7.425-17.516c.254-.615.293-1.066.293-1.279 0-1.255-.989-2.203-2.298-2.203"/><path d="m111.051 7.079c-3.001 0-5.796.836-7.869 2.352-.703.485-1.045 1.09-1.045 1.85 0 1.048.799 1.87 1.823 1.87.442 0 .937-.177 1.392-.495 1.782-1.188 3.457-1.742 5.27-1.742 3.469 0 5.46 1.764 5.46 4.841v.51c-7.787.008-15.707.949-15.707 7.723 0 4.876 4.167 7.059 8.296 7.059 3.289 0 5.915-1.303 7.6-3.77v1.186c0 1.767 1.187 2.393 2.204 2.393.215 0 2.108-.067 2.108-2.393v-12.422c0-5.612-3.565-8.962-9.532-8.962zm4.044 12.64h.987v1.081c0 3.953-2.517 6.507-6.412 6.507-1.057 0-4.507-.246-4.507-3.414 0-3.742 5.668-4.174 9.932-4.174z"/><path d="m132.801 11.58c2.052 0 2.156-1.597 2.156-1.917 0-.95-.567-1.965-2.156-1.965h-4.222v-4.27c0-1.907-1.237-2.584-2.298-2.584-.391 0-2.345.124-2.345 2.584v20.276c0 4.679 2.308 7.152 6.676 7.152 1.13 0 2.231-.2 2.951-.535.826-.412 1.299-1.089 1.299-1.858 0-1.084-.786-1.871-1.871-1.871-.209 0-.507.052-.835.147-.402.1-.674.139-.972.139-1.777 0-2.605-1.16-2.605-3.651v-11.647z"/><path d="m148.316 7.079c-7.096 0-12.245 5.03-12.245 11.959 0 3.374 1.247 6.449 3.511 8.658 2.247 2.192 5.348 3.398 8.734 3.398 7.008 0 12.293-5.182 12.293-12.056 0-6.929-5.171-11.959-12.293-11.959zm0 20.038c-4.867 0-7.411-4.064-7.411-8.079 0-5.517 3.841-8.029 7.411-8.029 3.569 0 7.411 2.512 7.411 8.029 0 5.551-3.842 8.079-7.411 8.079z"/></g><path d="m175.196 28.281c-2.232.319-3.491.233-4.091-.645-.429-.631-.647-1.673-.647-3.096v-15.066h4.345c.387 0 .7-.313.7-.7v-1.107c0-.387-.313-.701-.7-.701h-4.345v-5.288c0-.386-.313-.7-.7-.7h-1.128c-.387 0-.7.314-.7.7v5.288h-3.402c-.386 0-.7.314-.7.701v1.107c0 .387.314.7.7.7h3.402v15.214c.015 2.108.412 3.633 1.214 4.663.833 1.072 2.185 1.615 4.018 1.615 1.187 0 2.024-.094 2.557-.288.319-.116.509-.445.45-.779l-.185-1.046c-.065-.373-.419-.621-.788-.572" fill="#7aac41"/><path d="m194.882 6.966h-1.128c-.387 0-.7.314-.7.701v15.541c-.331 1.734-1.066 3.008-2.244 3.895-1.196.9-2.792 1.356-4.746 1.356-1.799 0-3.115-.514-4.022-1.571-.924-1.076-1.405-2.723-1.431-4.886v-14.335c0-.387-.313-.701-.7-.701h-1.107c-.387 0-.7.314-.7.701v14.301c.029 2.863.71 5.094 2.023 6.631 1.344 1.571 3.354 2.367 5.978 2.367 2.042 0 3.766-.393 5.124-1.169.689-.392 1.298-.859 1.825-1.398v1.457c0 .387.313.7.7.7h1.128c.387 0 .7-.313.7-.7v-22.189c0-.387-.313-.701-.7-.701" fill="#7aac41"/><path d="m209.375 28.281c-2.234.32-3.493.232-4.092-.645-.428-.63-.646-1.672-.646-3.096v-15.066h4.344c.387 0 .701-.313.701-.7v-1.107c0-.387-.314-.701-.701-.701h-4.344v-5.288c0-.386-.314-.7-.701-.7h-1.127c-.387 0-.701.314-.701.7v5.288h-3.401c-.387 0-.7.314-.7.701v1.107c0 .387.313.7.7.7h3.401v15.214c.016 2.108.413 3.633 1.214 4.663.833 1.072 2.186 1.615 4.019 1.615 1.186 0 2.023-.094 2.556-.288.32-.116.509-.445.451-.779l-.185-1.046c-.065-.373-.417-.621-.788-.572" fill="#7aac41"/><path d="m228.569 21.197c-.542-.891-1.411-1.662-2.582-2.293-1.116-.601-2.637-1.127-4.521-1.563-1.775-.41-3.133-.838-4.04-1.272-.85-.407-1.46-.853-1.814-1.326-.328-.44-.495-1.089-.495-1.929 0-1.048.464-1.904 1.42-2.618 1.006-.751 2.418-1.132 4.196-1.132 1.853 0 3.362.453 4.487 1.345 1.092.866 1.622 1.908 1.622 3.184 0 .387.313.701.7.701h1.127c.387 0 .7-.314.7-.701 0-2.157-.821-3.898-2.44-5.174-1.57-1.236-3.654-1.863-6.196-1.863-2.349 0-4.297.58-5.789 1.724-1.548 1.186-2.335 2.726-2.335 4.575 0 1.82.628 3.28 1.865 4.337 1.181 1.008 3.168 1.8 6.074 2.418 4.262.901 6.335 2.475 6.335 4.812 0 1.088-.516 2.001-1.576 2.792-1.107.826-2.59 1.245-4.409 1.245-2.006 0-3.602-.397-4.743-1.18-1.089-.748-1.664-1.766-1.758-3.111-.026-.367-.332-.652-.699-.652h-1.106c-.387 0-.7.314-.7.7 0 2.004.865 3.66 2.569 4.921 1.64 1.214 3.806 1.829 6.437 1.829 2.466 0 4.503-.585 6.055-1.737 1.617-1.201 2.438-2.812 2.438-4.787 0-1.259-.277-2.35-.822-3.245" fill="#7aac41"/><path d="m249.449 17.512h-6.196v-6.533c0-.469-.38-.85-.85-.85h-.805c-.47 0-.85.381-.85.85v6.533h-5.918c-.47 0-.849.381-.849.85v.791c0 .469.379.85.849.85h5.918v6.518c0 .469.38.85.85.85h.805c.47 0 .85-.381.85-.85v-6.518h6.196c.47 0 .85-.381.85-.85v-.791c0-.469-.38-.85-.85-.85" fill="#7aac41"/></g></svg>