<svg fill="none" height="32" viewBox="0 0 128 32" width="128" xmlns="http://www.w3.org/2000/svg"><g fill="#303030"><path d="m38.07 14.01c-3.52-.48-3.07 1.6-4.32 3.1-.07.08-.16.15-.25.21.5-1.56.32-3.17.28-3.8-.06-.7-.29-1.1-.7-1.07-.42.02-.21 1.17-.37 1.45-.15.29-.28.04-.39-.63-.1-.67-.51-.8-.72-.57-.21.22 0 .94 0 1.32 0 .37-.29.17-.52-.38-.23-.56-.52-.7-.75-.44-.24.24.62 1.49.96 2.14.25.48.13 1.57.05 2.12a8.41 8.41 0 0 1 -3.92-2.23c1.32-1.66 2.02-3.63 1.69-3.78-.34-.15-.62.57-.83.8-.21.24-.42.22-.23-.27.18-.5.07-1.03-.32-1.1-.39-.08-.3.45-.41.92-.1.48-.39.67-.42.3-.02-.37.06-1.12-.46-1.07s-.22 2.58-.18 2.62c-.75-.74-1.5-.9-1.5-.9.25-2.74 2.26-3.08 4.37-4.53.51-.35 1.03-1 1.33-1.53.52-.87.41-1.87-.36-2.57-.71-.65-1.74-.82-2.7-.87a6.82 6.82 0 0 0 -5.05 2.05c-1.24 1.36-1.62 3.48-1.93 5.2a18.94 18.94 0 0 0 -.29 3.17 4.68 4.68 0 0 0 -.72 1.66c-.33-.53-1.19-1.89-1.48-1.98-.36-.13-.57.42-.28.82.28.4.49.92.3.77-.17-.15-.8-.8-1.19-.7-.38.1-.62.43-.13.67.5.25.96.58.89.75-.08.18-.24.03-.55-.12-.3-.15-.88-.07-.88.2s.18.5.83.7 1.14.42 1.48 1.02 1.46 1.2 1.64 1.2c.37.62.75 1 .75 1 3.7 3.73 7.38 4.47 10 4.35-.4.52-1.13 1.4-1.68 1.77-.8.52-.62.82-.31.92s.9-.05 1.37-.57c.47-.53.88-.63.78-.4-.1.22-.98 1-1.04 1.32-.05.32.31.65.65.37.34-.27.88-1.04 1.22-1.57.34-.52.47-.17.29.25s-.65.85-.63 1.3c.03.45.7.2 1.1-.43.36-.58 1.18-1.84 1.3-3.54.46-.16.71-.3.71-.3 5.68-2.07 7.04-8.64 3.52-9.12z"/><path d="m35.28 14.1c.5-.46 1.34-.65 2.8-.45.37.05.7.17.96.36.9-.72.34-1.64-.13-1.75-.39-.1-.41-.39-.38-.72.13-1.25-.03-3.06-1.82-2.7-1.55.32-1.53 1.76-1.1 2.94.15.42.17.72-.15 1.07-.41.47-.32.97-.18 1.24z"/><path d="m67.85 8.4c0 .14-.06.3-.17.46l-10.53 14.18h10.61v.96h-12.22v-.42a.6.6 0 0 1 .03-.21l.11-.2 10.56-14.2h-10.4v-.97h12v.4z"/><path d="m81.31 9.95c-.07.12-.17.19-.3.19-.1 0-.24-.07-.4-.2a4.98 4.98 0 0 0 -1.68-.94 4.6 4.6 0 0 0 -1.51-.22c-.6 0-1.14.08-1.6.25a3 3 0 0 0 -2.09 2.86c0 .54.12 1 .36 1.35s.56.65.95.9.83.46 1.32.63l1.54.5c.52.17 1.03.35 1.52.55.5.2.95.45 1.34.75a3.35 3.35 0 0 1 1.3 2.76c0 .67-.12 1.3-.36 1.9-.23.59-.58 1.1-1.03 1.54-.46.43-1.01.78-1.67 1.04-.65.25-1.4.37-2.25.37-1.1 0-2.04-.19-2.83-.55a6.72 6.72 0 0 1 -2.07-1.54l.32-.5c.1-.11.2-.17.33-.17.07 0 .16.05.27.14l.4.34.56.43a5.37 5.37 0 0 0 1.76.75c.38.1.8.14 1.28.14.66 0 1.25-.1 1.76-.28.52-.2.95-.46 1.3-.8.37-.33.64-.72.83-1.17.18-.46.28-.95.28-1.47 0-.57-.12-1.03-.37-1.4a2.89 2.89 0 0 0 -.93-.9 6 6 0 0 0 -1.34-.63l-1.53-.49c-.52-.15-1.03-.33-1.53-.53s-.94-.44-1.33-.74c-.39-.31-.7-.7-.95-1.14a3.76 3.76 0 0 1 -.35-1.72 3.92 3.92 0 0 1 1.24-2.86c.4-.39.9-.7 1.5-.92.6-.23 1.29-.35 2.06-.35.86 0 1.63.13 2.3.4.7.26 1.32.66 1.89 1.2z"/><path d="m97.16 18.19-3.38-8.09a7.87 7.87 0 0 1 -.34-.95 8.34 8.34 0 0 1 -.32.97l-3.38 8.07zm3.68 5.8h-.93c-.11 0-.2-.02-.27-.07a.61.61 0 0 1 -.17-.23l-1.94-4.64h-8.16l-1.94 4.64a.49.49 0 0 1 -.17.22.45.45 0 0 1 -.28.09h-.92l6.8-16h1.18l6.8 16z"/></g></svg>